<?xml version="1.0" standalone="no"?>
<!DOCTYPE svg PUBLIC "-//W3C//DTD SVG 20010904//EN"
 "http://www.w3.org/TR/2001/REC-SVG-20010904/DTD/svg10.dtd">
<svg version="1.0" xmlns="http://www.w3.org/2000/svg"
 width="2048.000000pt" height="1025.000000pt" viewBox="0 0 2048.000000 1025.000000"
 preserveAspectRatio="xMidYMid meet">
<metadata>
Created by potrace 1.15, written by Peter Selinger 2001-2017
</metadata>
<g transform="translate(0.000000,1025.000000) scale(0.100000,-0.100000)"
fill="#000000" stroke="none">
<path d="M0 9156 l0 -1094 21 -14 c17 -11 23 -28 28 -87 4 -40 3 -75 -1 -77
-5 -3 -17 5 -28 18 -19 23 -19 12 -20 -1144 l0 -1166 23 4 22 5 -22 -10 -23
-10 0 -2791 0 -2790 10240 0 10240 0 0 2144 c0 1699 -3 2145 -13 2149 -9 4 -9
6 1 6 17 1 18 2691 0 2709 -9 9 -9 12 0 12 9 0 12 39 11 149 l0 150 -25 -9
c-13 -5 -38 -7 -55 -3 -31 6 -31 6 -25 57 14 114 16 151 7 136 -6 -8 -8 -17
-5 -21 2 -4 -3 -10 -12 -13 -8 -3 -13 -10 -10 -15 10 -15 -6 -43 -20 -37 -7 3
-20 -1 -28 -9 -20 -20 -29 -19 -22 3 4 12 1 10 -11 -5 l-18 -23 0 24 c0 13 3
22 8 19 4 -2 7 0 7 6 0 18 -17 21 -30 6 -20 -24 -43 -19 -36 8 3 12 6 30 6 41
0 16 2 17 17 5 15 -12 16 -12 10 3 -4 12 -2 15 8 12 7 -3 16 3 20 15 8 26 44
36 93 25 20 -4 41 -6 45 -5 5 1 24 -3 43 -8 l34 -9 0 1364 0 1364 -770 0
c-721 0 -770 -1 -780 -17 -11 -17 -11 -17 -6 -1 8 25 -7 22 -33 -6 -14 -15
-20 -30 -16 -37 5 -7 4 -10 -3 -5 -14 9 -68 -89 -76 -139 l-6 -40 19 40 c26
53 26 30 1 -39 -12 -30 -19 -65 -17 -78 2 -12 2 -17 0 -10 -3 6 -9 12 -14 12
-5 0 -9 6 -9 13 0 6 -16 43 -35 81 -26 52 -32 73 -23 83 8 10 7 13 -5 13 -10
0 -23 22 -37 65 l-22 65 -9324 0 -9324 0 0 -1094z m17466 -538 c9 -10 -17
-132 -32 -149 -12 -13 -34 -105 -34 -141 0 -5 -7 -8 -15 -8 -17 0 -20 -16 -5
-25 11 -7 2 -35 -11 -35 -5 0 -9 7 -9 15 0 8 -4 15 -10 15 -5 0 -10 11 -10 25
0 35 -28 33 -32 -2 -3 -32 -21 -34 -26 -4 -5 29 16 61 38 61 24 0 26 24 5 63
-8 15 -12 34 -9 42 4 9 -1 18 -11 21 -9 4 -14 13 -11 21 8 19 -21 28 -39 13
-9 -7 -13 -21 -10 -30 6 -18 -19 -82 -44 -111 -20 -24 -60 -6 -55 25 2 11 2
15 -2 9 -12 -26 -19 -11 -16 35 4 53 32 122 62 152 19 19 31 20 145 17 69 -2
128 -6 131 -9z m-6308 -354 c45 -3 82 -9 82 -12 -1 -35 -13 -48 -41 -44 -23 3
-29 0 -30 -14 -8 -111 -7 -124 3 -124 6 0 9 -2 6 -5 -8 -9 -38 6 -32 16 3 5
-3 12 -13 15 -10 3 -26 10 -35 15 -12 6 -18 6 -18 -1 0 -5 -5 -10 -11 -10 -6
0 -8 8 -4 19 6 19 -10 59 -29 72 -13 10 -44 -1 -51 -19 -3 -8 0 -19 6 -23 10
-6 -37 -6 -83 0 -5 1 -8 30 -8 65 l0 64 88 -4 c48 -2 124 -6 170 -10z m1722
-94 c80 -5 170 -10 200 -11 73 -3 75 -4 78 -42 4 -49 -6 -80 -24 -73 -10 4
-14 0 -12 -12 2 -13 -5 -17 -32 -18 -19 -1 -68 -5 -109 -9 -50 -5 -72 -4 -67
3 3 6 0 13 -6 15 -7 3 1 6 19 6 38 1 56 21 19 21 -25 0 -32 15 -27 57 1 6 -4
15 -10 19 -7 4 -9 3 -6 -3 10 -16 -18 -24 -32 -10 -17 17 -27 -4 -30 -60 -1
-26 -7 -53 -14 -62 -9 -12 -9 -13 0 -7 9 5 11 2 7 -9 -5 -13 -9 -13 -22 -3
-12 10 -14 10 -8 1 4 -7 3 -13 -2 -13 -5 0 -12 9 -15 20 -3 14 -14 20 -31 20
-14 0 -26 -5 -26 -11 0 -6 -7 -3 -16 5 -8 9 -22 16 -30 16 -8 0 -14 5 -14 10
0 6 -24 10 -52 11 -58 0 -116 17 -66 18 23 1 29 7 39 41 15 49 29 52 29 6 0
-19 5 -38 10 -41 6 -4 10 9 10 32 0 21 3 47 6 58 5 20 2 21 -66 14 -39 -3 -73
-9 -76 -12 -3 -3 -1 -28 4 -56 l9 -51 -38 0 c-39 0 -39 0 -39 41 0 28 8 51 27
75 l26 35 121 -6 c67 -3 186 -10 266 -15z m748 -81 c4 -40 22 -65 22 -29 0 32
27 60 58 60 14 0 22 -3 19 -7 -4 -3 1 -15 10 -25 20 -22 27 -86 12 -104 -7 -8
-5 -17 6 -28 15 -14 15 -16 1 -16 -9 0 -16 5 -16 10 0 12 -37 13 -42 1 -4 -13
-73 -18 -74 -6 -1 22 -28 65 -40 65 -13 0 -9 52 8 98 12 33 32 22 36 -19z
m1099 -63 c2 -28 -2 -43 -15 -52 -11 -9 -13 -13 -4 -14 9 0 11 -7 7 -21 -5
-15 -4 -19 5 -14 9 6 9 3 1 -14 -7 -12 -9 -26 -6 -31 3 -6 -4 -10 -17 -10 -17
0 -28 -9 -36 -27 -6 -16 -10 -21 -8 -13 5 21 -12 50 -28 50 -17 0 -13 119 5
163 11 25 16 28 52 25 39 -3 41 -4 44 -42z m194 17 c1 -10 1 -35 0 -55 -2 -25
2 -38 10 -38 7 0 10 3 6 6 -8 9 14 67 32 80 11 9 18 8 29 -2 19 -19 32 -17 26
4 -5 14 -3 14 10 -2 9 -11 16 -28 16 -38 0 -10 5 -18 11 -18 6 0 9 -7 5 -15
-3 -8 2 -19 12 -24 9 -6 13 -11 7 -11 -5 0 -3 -5 5 -10 12 -8 13 -12 2 -19
-18 -11 67 -23 108 -15 19 4 30 2 30 -5 0 -6 -5 -11 -11 -11 -8 0 -8 -5 1 -15
10 -12 10 -18 0 -30 -17 -21 -33 -8 -26 21 6 24 6 24 -76 24 -46 -1 -141 4
-213 10 -71 7 -135 12 -142 12 -7 1 -10 5 -7 10 3 4 25 8 48 8 41 0 44 2 50
31 3 17 6 44 6 60 0 16 5 29 10 29 6 0 10 7 10 15 0 21 40 19 41 -2z m739 -32
l155 -6 -2 -25 c-15 -188 -13 -180 -38 -180 -13 0 -25 -6 -27 -12 -4 -10 -8
-9 -20 2 -8 8 -13 20 -11 26 3 8 -44 14 -150 19 l-154 7 1 79 c1 43 4 79 8 79
4 0 5 7 1 16 -5 14 0 15 38 9 24 -4 114 -11 199 -14z m380 -21 c19 0 29 -6 33
-19 3 -14 11 -18 26 -14 11 3 18 10 14 16 -4 7 41 8 143 3 82 -4 150 -9 152
-10 2 -2 -1 -25 -5 -52 -8 -48 -31 -67 -40 -34 -4 12 -3 12 5 1 6 -8 12 -9 16
-3 7 11 -18 24 -28 15 -10 -10 -7 -21 11 -39 17 -16 16 -17 -25 -12 -34 5 -44
3 -52 -12 -9 -17 -4 -30 11 -30 4 0 6 9 4 20 -2 11 1 20 7 20 5 0 8 -7 4 -15
-3 -8 0 -15 7 -15 7 0 3 -8 -8 -16 -11 -8 -19 -19 -18 -24 1 -4 -5 -14 -14
-22 -15 -11 -16 -11 -10 4 4 13 2 15 -10 11 -11 -4 -14 -3 -9 5 13 22 -22 24
-43 3 -26 -26 -37 -26 -52 0 -9 18 -16 20 -47 14 -21 -4 -56 -7 -79 -6 -37 2
-43 -1 -43 -18 0 -11 -4 -23 -10 -26 -6 -3 -10 5 -10 18 0 14 -7 28 -15 31
-13 5 -15 18 -9 83 8 88 27 138 50 129 9 -3 28 -6 44 -6z m479 -36 c2 -2 -2
-38 -9 -81 -7 -43 -12 -86 -12 -95 1 -10 -4 -18 -9 -18 -5 0 -9 -7 -7 -16 2
-10 -3 -19 -11 -22 -10 -3 -12 0 -7 14 20 49 20 49 -1 31 -12 -10 -23 -15 -25
-10 -7 14 -10 192 -3 203 6 9 72 4 84 -6z m-12342 -95 c0 -22 7 -47 15 -57 9
-9 15 -30 14 -46 -1 -26 -6 -30 -51 -42 -27 -7 -58 -11 -67 -8 -9 3 -21 -3
-27 -13 -8 -14 -12 -16 -22 -5 -18 17 -39 15 -39 -3 0 -8 -5 -15 -10 -15 -6 0
-13 7 -16 15 -4 8 -12 15 -20 15 -8 0 -14 5 -14 10 0 6 5 10 10 10 6 0 10 7
10 16 0 12 6 15 25 10 18 -5 25 -2 25 9 0 8 -9 15 -20 15 -17 0 -20 6 -18 33
2 41 -9 62 -26 48 -14 -12 -36 4 -36 25 0 11 39 16 205 27 58 3 62 0 62 -44z
m13556 10 c28 0 19 -19 -13 -25 -24 -5 -30 -12 -30 -33 0 -31 -8 -43 -35 -60
-19 -11 -19 -12 4 -5 16 4 21 3 17 -5 -4 -6 0 -11 8 -11 19 0 21 -21 4 -38 -9
-9 -9 -12 0 -12 7 0 12 5 12 10 0 6 9 10 21 10 11 0 17 -4 14 -10 -3 -5 -1
-10 6 -10 6 0 9 8 6 20 -3 11 -1 20 4 20 5 0 9 -11 9 -24 0 -17 7 -26 23 -30
12 -3 -11 -3 -52 -1 -41 2 -77 8 -80 12 -3 4 -17 14 -30 21 -21 12 -23 12 -18
-2 5 -13 -1 -16 -29 -16 l-36 0 7 78 c10 107 28 127 110 117 33 -3 68 -6 78
-6z m-339 -31 c-6 -20 -5 -21 10 -9 15 13 30 9 32 -7 0 -4 4 -15 9 -25 9 -20
-25 -257 -37 -257 -4 0 -8 -5 -8 -11 0 -14 -26 -39 -40 -39 -7 0 -28 -8 -47
-17 -31 -14 -33 -18 -17 -24 16 -7 15 -8 -6 -8 -42 -1 -52 12 -49 65 3 54 12
62 67 63 37 1 39 5 45 79 4 49 3 52 -19 52 -13 0 -24 5 -24 11 0 6 10 9 23 7
22 -4 25 0 37 61 13 67 17 81 26 81 3 0 2 -10 -2 -22z m576 -3 c0 -18 16 -20
23 -2 4 10 22 11 78 6 41 -4 82 -8 92 -8 14 -1 16 -5 7 -20 -17 -32 -12 -58
13 -66 14 -4 17 -8 9 -12 -10 -4 -9 -10 4 -30 l16 -26 -28 7 c-20 5 -26 4 -19
-3 6 -6 27 -12 48 -13 40 -3 44 -7 25 -26 -7 -7 -10 -12 -7 -13 2 0 24 -3 49
-5 116 -11 213 -24 218 -29 12 -12 -10 -12 -122 2 -155 19 -162 17 -171 -47
-6 -47 -9 -50 -36 -50 -19 0 -29 5 -29 15 0 8 -6 15 -13 15 -9 0 -14 16 -16
47 -1 26 -7 53 -12 59 -5 7 -8 18 -7 24 2 9 -16 13 -64 15 -63 2 -68 1 -68
-19 0 -12 -3 -31 -6 -43 -5 -19 -9 -20 -25 -10 -12 7 -17 18 -13 29 4 14 -3
19 -36 24 -33 5 -38 9 -29 20 6 8 17 14 24 14 8 0 15 23 20 67 4 36 9 72 12
80 7 19 63 17 63 -2z m-2775 -85 c6 -4 22 -10 38 -14 32 -8 33 -16 9 -46 -17
-21 -23 -22 -95 -15 l-77 7 0 31 c0 32 -15 28 -22 -5 -2 -14 -5 -13 -15 7 -6
14 -8 23 -3 20 4 -3 18 3 29 13 16 12 35 16 74 13 29 -1 57 -6 62 -11z m3548
-84 c-2 -109 -18 -233 -33 -252 -6 -6 -7 -13 -4 -17 3 -3 -15 -9 -40 -12 -33
-5 -47 -13 -52 -27 -3 -11 -8 -17 -12 -14 -3 3 -13 -1 -23 -10 -10 -9 -25 -14
-33 -11 -8 3 -16 1 -18 -4 -2 -6 -11 -11 -20 -13 -32 -4 -29 -14 8 -20 54 -11
33 -19 -26 -11 l-51 7 3 67 2 67 85 3 c47 1 87 3 87 4 1 1 5 28 8 60 3 32 8
63 12 68 3 6 -3 13 -15 16 -32 8 -24 63 9 63 13 0 20 11 25 40 4 22 5 42 3 46
-1 3 5 10 15 15 9 6 17 17 17 25 0 10 9 14 28 12 l27 -2 -2 -100z m-6755 68
l92 -7 -6 -51 c-3 -28 -10 -75 -15 -105 -5 -30 -7 -57 -4 -59 3 -3 5 0 5 7 0
7 5 9 11 5 8 -4 3 -12 -12 -20 l-24 -13 25 -1 c23 -1 23 -2 5 -10 -32 -14 -35
-12 -50 23 l-14 32 -1 -27 c0 -16 -4 -28 -10 -28 -5 0 -10 7 -10 15 0 8 -4 15
-10 15 -5 0 -10 -7 -10 -16 0 -9 -7 -14 -17 -12 -19 3 -25 48 -9 59 11 9 -2
99 -15 99 -5 0 -9 -6 -7 -12 1 -7 -2 -22 -8 -33 -5 -11 -10 -39 -9 -62 0 -29
-4 -43 -13 -43 -7 0 -12 7 -10 16 2 10 -3 19 -9 21 -8 3 -13 -4 -13 -17 0 -29
-30 -23 -46 8 -7 15 -14 20 -18 13 -4 -6 -4 -15 -1 -21 3 -5 -3 -10 -14 -10
-12 0 -21 7 -21 15 0 8 -7 15 -15 15 -8 0 -15 -4 -15 -10 0 -5 -4 -10 -10 -10
-5 0 -10 7 -10 15 0 9 -7 18 -17 22 -32 12 23 22 76 14 l51 -8 1 46 c1 65 -1
113 -8 135 -5 17 -1 18 43 13 27 -3 91 -9 142 -13z m7125 -3 c22 -1 23 -21 0
-21 -31 0 1 -17 44 -24 44 -6 68 8 42 25 -9 7 -2 8 21 5 19 -3 76 -10 125 -16
169 -20 530 -72 541 -79 7 -4 6 -29 -4 -83 -15 -76 -16 -77 -43 -74 -16 2 -36
10 -46 17 -10 8 -14 9 -10 2 7 -11 0 -12 -57 -4 -5 0 -6 15 -2 32 5 26 4 30
-8 20 -12 -10 -14 -7 -10 16 4 27 3 28 -46 31 -37 2 -50 0 -48 -10 2 -7 8 -16
13 -20 6 -4 -4 -13 -22 -20 -18 -7 -33 -16 -33 -20 0 -4 -6 -8 -13 -8 -7 0
-18 -9 -24 -19 -11 -17 -9 -21 7 -26 20 -6 19 -25 -1 -25 -6 0 -7 5 -4 10 3 6
2 10 -4 10 -5 0 -17 3 -25 6 -12 4 -15 2 -11 -9 4 -10 -3 -16 -27 -21 -29 -7
-31 -9 -13 -16 19 -8 19 -9 -2 -9 -19 -1 -24 6 -29 40 -6 36 -9 40 -31 36 -16
-3 -27 2 -34 14 -7 15 -6 19 6 19 8 0 15 5 15 10 0 6 -5 10 -11 10 -8 0 -8 5
1 15 9 10 9 15 1 15 -6 0 -11 9 -11 20 0 11 5 20 10 20 6 0 10 5 10 10 0 6 -7
10 -15 10 -10 0 -15 -10 -15 -34 0 -18 -3 -48 -6 -65 -6 -29 -9 -31 -51 -31
-27 0 -42 4 -38 10 3 6 1 10 -4 10 -6 0 -11 -6 -11 -14 0 -17 -41 -16 -62 2
-9 7 -19 8 -28 2 -23 -15 -30 -12 -31 13 0 12 -3 16 -6 10 -7 -19 -44 -16 -59
5 -9 11 -16 13 -21 6 -5 -5 -30 -10 -58 -10 -48 1 -50 2 -62 36 l-11 35 -10
-25 c-5 -14 -12 -32 -15 -40 -8 -19 3 115 13 149 3 14 17 31 29 37 12 7 27 16
32 21 5 5 38 6 77 2 37 -5 75 -8 85 -8z m-9323 -111 c0 -11 6 -20 13 -21 10 0
10 -2 0 -6 -7 -2 -13 -9 -13 -14 0 -4 8 -5 17 -2 12 5 15 2 11 -9 -4 -10 2
-19 18 -27 13 -6 24 -18 24 -28 0 -15 -2 -15 -16 3 -15 19 -15 19 -9 -2 4 -15
0 -24 -11 -28 -11 -4 -15 -2 -11 8 4 10 -2 13 -18 12 -18 -1 -26 -9 -32 -31
-4 -16 -6 -36 -4 -44 2 -9 -3 -12 -13 -8 -9 4 -14 0 -14 -11 0 -9 -3 -25 -7
-34 -5 -13 -3 -18 10 -18 9 0 13 -4 10 -10 -3 -5 -1 -10 4 -10 6 0 11 -7 11
-15 0 -9 12 -18 30 -21 17 -4 30 -13 30 -20 0 -17 -5 -17 -30 -2 -10 7 -23 8
-27 4 -4 -5 -2 -11 5 -13 25 -9 11 -23 -18 -18 -17 3 -29 2 -28 -2 0 -5 -4
-21 -11 -37 -15 -38 -23 -116 -11 -116 5 0 7 7 4 15 -4 8 -1 15 5 15 6 0 11
-7 11 -15 0 -7 8 -19 18 -24 9 -6 11 -11 5 -11 -19 0 -16 -12 11 -41 l24 -26
-33 -29 c-18 -16 -29 -31 -24 -35 5 -3 0 -18 -12 -33 -18 -23 -19 -30 -8 -36
7 -5 10 -12 6 -16 -3 -4 -12 -3 -20 2 -7 5 -4 1 6 -9 16 -14 17 -20 7 -33 -7
-8 -19 -13 -27 -10 -9 4 -13 -4 -14 -27 -1 -24 -3 -26 -6 -9 -4 19 -7 21 -19
11 -8 -7 -29 -9 -50 -6 -31 5 -34 4 -29 -13 10 -31 -5 -70 -27 -70 -12 0 -16
-4 -12 -11 4 -7 1 -10 -6 -7 -20 6 -24 28 -6 28 9 0 16 5 16 10 0 18 -19 11
-45 -17 -22 -24 -23 -29 -10 -39 19 -14 19 -25 0 -18 -9 4 -15 0 -15 -10 0
-11 -9 -16 -28 -16 -17 0 -32 -8 -40 -21 -10 -15 -18 -18 -35 -13 -12 4 -37 6
-56 5 -19 -1 -38 4 -42 10 -5 8 -15 4 -33 -15 -15 -14 -24 -26 -21 -26 3 0 -3
-10 -15 -22 -11 -12 -20 -25 -20 -28 0 -3 -14 -17 -31 -29 l-31 -23 7 23 c7
23 6 23 -11 7 -13 -13 -15 -20 -6 -31 15 -17 6 -27 -25 -27 -13 0 -24 -4 -24
-10 -1 -5 -2 -14 -3 -19 0 -5 -5 -13 -10 -18 -5 -4 -6 -3 -2 4 3 6 2 14 -4 18
-6 4 -10 -5 -10 -19 0 -14 -5 -26 -11 -26 -6 0 -9 -9 -6 -19 4 -19 -13 -31
-52 -35 -22 -2 -40 -38 -31 -61 8 -19 9 -19 9 1 1 16 7 22 26 22 l24 0 -26
-28 c-21 -23 -31 -27 -50 -19 -19 7 -24 5 -29 -16 -3 -14 -9 -23 -13 -21 -3 2
-14 -5 -24 -14 -18 -17 -14 -17 70 1 175 38 240 52 360 80 131 30 193 34 193
12 0 -16 -27 -17 -32 -1 -3 8 -69 -4 -219 -40 -118 -28 -248 -58 -289 -66
-278 -57 -434 -96 -443 -111 -4 -9 -13 -12 -19 -9 -6 4 -8 2 -4 -4 3 -6 2 -13
-3 -16 -5 -4 -8 -21 -7 -39 2 -17 1 -24 -1 -13 -4 15 -11 17 -44 12 -22 -4
-39 -2 -39 3 0 16 -55 5 -58 -12 -4 -18 -46 -30 -74 -21 -13 4 -18 2 -14 -4 3
-5 -5 -12 -19 -14 -13 -3 -22 -1 -19 3 3 5 1 9 -5 9 -5 0 -13 -5 -16 -11 -4
-6 -14 -8 -22 -5 -8 4 -11 2 -7 -5 4 -7 0 -9 -14 -5 -20 7 -21 3 -25 -81 l-3
-88 -2 92 c-2 91 -2 91 -31 104 -29 13 -29 14 -13 41 8 15 20 24 25 21 6 -4 8
2 5 14 -4 15 3 27 26 44 17 13 25 16 18 7 -11 -14 -8 -15 20 -13 21 1 34 8 36
19 2 11 -1 14 -12 10 -12 -4 -16 0 -16 15 0 18 3 19 18 10 14 -9 27 -7 60 10
23 12 42 28 42 36 0 8 5 15 10 15 6 0 10 -7 10 -15 0 -8 -5 -15 -10 -15 -6 0
-10 -6 -9 -12 7 -55 0 -66 -51 -78 -51 -12 -67 -27 -27 -26 12 1 28 7 35 14 7
6 20 12 28 12 18 0 42 53 47 102 2 18 7 39 11 46 4 7 1 12 -8 12 -9 0 -16 8
-16 18 0 14 -4 13 -19 -7 -10 -13 -23 -21 -30 -17 -6 4 -11 2 -11 -3 0 -14
-37 -14 -45 -1 -3 6 -2 10 3 10 6 0 9 8 8 18 -1 17 2 17 48 4 16 -4 18 -1 13
19 -5 21 -1 27 24 36 21 8 39 9 56 2 33 -12 40 -5 27 29 -12 32 -8 52 12 52 9
0 14 10 14 28 0 21 -2 24 -10 12 -7 -11 -10 -12 -10 -2 0 9 -7 11 -19 7 -11
-3 -22 -2 -25 3 -10 16 6 50 25 55 10 3 19 11 19 19 0 11 -2 11 -9 0 -5 -8
-20 -15 -33 -15 -17 -2 -24 -7 -21 -18 6 -22 -24 -46 -39 -31 -18 18 -27 14
-21 -8 3 -11 9 -20 14 -20 5 0 9 -7 9 -15 0 -8 -5 -15 -12 -15 -6 0 -8 -3 -5
-6 11 -12 36 17 30 33 -4 10 -2 14 4 10 6 -4 14 -1 16 5 4 10 8 9 16 -2 8 -11
7 -16 -4 -18 -21 -5 -19 -22 3 -23 13 0 14 -2 2 -6 -8 -4 -24 -16 -35 -28 -11
-13 -29 -27 -41 -33 -22 -12 -22 -11 -27 41 -1 13 -7 24 -14 24 -6 0 -9 -6 -6
-14 4 -10 -2 -12 -24 -9 -24 5 -32 1 -45 -22 -23 -41 -12 -56 23 -30 16 12 28
27 25 34 -3 7 3 10 15 7 10 -3 19 -11 19 -19 0 -8 -6 -11 -15 -7 -9 3 -15 2
-14 -3 3 -20 -2 -35 -10 -29 -5 3 -21 -6 -35 -20 -26 -26 -58 -36 -38 -12 7 8
6 16 -3 24 -10 10 -14 7 -19 -13 -5 -17 -13 -24 -31 -24 -25 0 -33 14 -15 25
6 4 4 12 -5 22 -9 9 -13 23 -10 31 5 12 1 12 -15 -3 -11 -10 -20 -14 -20 -9 0
18 18 37 37 39 10 1 29 7 43 13 19 7 29 6 43 -6 16 -15 17 -14 11 1 -6 17 7
22 49 19 14 -2 17 3 12 19 -8 23 36 74 63 74 9 0 21 9 27 21 5 11 16 19 24 16
8 -3 11 0 7 6 -3 6 -2 14 4 17 8 5 7 11 -1 21 -9 12 -9 13 3 9 10 -4 21 7 34
37 10 23 19 48 19 54 0 17 32 44 52 44 15 0 15 2 3 9 -8 6 -18 7 -22 5 -4 -3
-13 -2 -20 2 -7 5 -2 15 18 31 23 18 26 25 15 32 -17 11 -6 31 18 31 9 0 22 5
28 11 7 7 19 9 29 5 16 -6 15 -8 -4 -26 -12 -11 -19 -27 -16 -35 4 -9 0 -15
-7 -15 -9 -1 -7 -6 6 -16 14 -11 16 -18 8 -21 -7 -3 -13 -9 -13 -14 0 -5 11
-2 25 7 14 9 25 14 25 10 0 -3 -15 -36 -32 -72 -24 -49 -30 -68 -20 -71 10 -4
10 -10 -3 -29 -13 -21 -13 -24 -1 -24 8 0 18 -5 22 -12 5 -7 2 -9 -8 -5 -12 4
-14 1 -11 -14 3 -10 10 -19 17 -20 6 0 0 -5 -14 -11 -15 -6 -20 -12 -12 -15 6
-3 12 -9 12 -14 0 -6 -4 -8 -9 -5 -5 3 -15 -2 -22 -11 -10 -12 -10 -14 -1 -9
6 4 12 3 12 -3 0 -5 -6 -12 -12 -14 -10 -4 -10 -7 -1 -14 10 -7 8 -13 -7 -26
-25 -21 -26 -37 -1 -30 11 3 18 10 15 17 -3 7 4 20 15 30 10 10 17 25 14 35
-3 12 7 30 26 50 35 35 38 43 16 35 -8 -4 -15 -2 -15 4 0 5 14 12 31 16 17 3
28 10 24 16 -4 6 -15 6 -32 -1 -20 -7 -28 -6 -35 3 -13 21 -10 26 17 26 31 0
56 19 48 38 -3 7 -9 11 -14 8 -5 -3 -7 -9 -4 -14 3 -4 -2 -11 -11 -14 -13 -5
-15 -1 -12 19 3 13 1 22 -3 19 -5 -3 -9 -13 -9 -22 0 -11 -3 -13 -11 -5 -14
14 -8 48 9 49 6 1 17 2 23 3 5 0 7 6 4 11 -4 6 -11 8 -16 5 -13 -9 -10 7 6 29
7 10 20 16 27 13 16 -5 68 30 68 46 0 7 -4 6 -10 -3 -8 -12 -10 -9 -10 12 0
15 -4 30 -10 33 -5 3 -10 -1 -10 -10 0 -9 -4 -14 -9 -11 -4 3 -17 -1 -27 -9
-24 -18 -48 -19 -41 -1 3 7 0 19 -6 25 -6 6 -8 11 -3 11 4 0 15 -7 24 -16 11
-11 17 -13 20 -5 2 6 8 9 13 5 5 -3 9 0 9 7 0 13 38 49 52 49 5 0 7 -9 3 -20
-3 -11 -1 -28 5 -37 10 -16 11 -16 6 -1 -7 25 24 84 35 67 7 -12 9 -12 9 0 0
10 3 11 14 2 11 -9 15 -9 19 1 8 25 -4 39 -20 22 -11 -11 -18 -12 -23 -4 -4 6
-14 8 -23 4 -9 -3 -14 -10 -11 -15 3 -5 0 -9 -5 -9 -6 0 -11 4 -11 10 0 5 -8
7 -17 3 -10 -3 3 16 29 43 43 44 49 47 72 36 20 -9 32 -9 51 0 13 6 22 14 20
19 -3 4 -1 10 5 14 5 3 10 1 10 -5 0 -7 7 -9 16 -6 8 3 13 2 10 -3 -3 -5 3
-11 13 -14 14 -3 17 0 14 14 -4 14 0 19 17 19 27 0 55 26 39 36 -8 5 -7 9 2
14 10 7 10 12 0 23 -9 12 -9 16 1 20 7 3 -5 3 -27 1 -22 -2 -47 2 -55 7 -13 9
-12 10 3 5 20 -6 47 2 47 15 0 5 -7 9 -17 9 -14 0 -14 2 2 20 21 23 4 28 -19
5 -8 -8 -19 -15 -25 -15 -19 0 -12 16 14 30 14 7 25 17 25 22 0 4 10 8 23 8
15 0 18 -3 9 -8 -8 -6 -2 -9 17 -9 20 0 28 4 24 14 -5 13 -17 17 -41 14 -17
-3 -7 36 14 59 12 12 14 12 14 -3 0 -20 28 -23 36 -3 3 8 -2 28 -10 45 -21 40
-20 48 3 27 17 -15 19 -15 25 -1 4 10 13 14 24 11 11 -4 36 8 67 30 28 20 51
30 53 24 2 -6 2 -12 1 -13 -2 -2 -26 -20 -53 -42 -31 -25 -51 -35 -54 -27 -5
17 -27 15 -42 -3 -10 -13 -9 -15 9 -15 11 0 21 -5 21 -11 0 -5 -4 -7 -10 -4
-5 3 -10 2 -10 -4 0 -5 6 -11 13 -14 10 -4 10 -7 0 -18 -7 -7 -13 -17 -13 -23
0 -5 6 -1 14 9 12 16 16 17 30 6 14 -11 16 -11 16 3 0 10 4 15 9 12 5 -3 21 1
37 9 15 7 31 12 36 9 4 -3 8 0 8 5 0 6 5 11 10 11 18 0 11 -29 -10 -40 -11 -6
-20 -17 -20 -25 0 -9 -9 -15 -22 -15 -17 0 -19 -3 -11 -11 9 -9 20 -9 44 2 25
10 34 10 37 1 6 -18 19 -14 25 8 4 15 10 18 24 13 10 -3 15 -3 11 2 -4 4 -1
17 7 29 21 29 19 39 -7 33 -13 -3 -34 1 -48 8 l-25 14 25 2 c14 1 30 2 36 2 6
0 16 8 23 18 14 23 3 24 -26 4 -20 -14 -21 -13 -25 20 -3 27 0 36 14 41 16 5
16 7 3 20 -8 9 -13 19 -10 24 3 4 -8 10 -23 13 -20 4 -31 1 -41 -14 -7 -10
-36 -35 -63 -55 -48 -36 -49 -36 -70 -18 -20 18 -21 18 -15 1 6 -15 4 -16 -13
-7 -11 6 -20 15 -20 21 0 6 5 7 10 4 18 -11 10 11 -10 30 -11 10 -20 24 -20
32 0 8 -5 11 -11 8 -7 -5 -3 -15 10 -29 39 -41 17 -51 -26 -12 -18 17 -23 29
-18 45 9 29 35 23 57 -11 10 -16 23 -28 29 -28 8 0 6 7 -4 18 -10 10 -17 21
-17 24 0 12 65 28 116 28 45 0 55 3 65 23 7 12 10 24 8 26 -2 2 7 11 21 20
l24 16 -27 -39 c-26 -40 -29 -58 -5 -39 7 6 20 10 28 10 8 0 38 3 65 6 l50 6
-25 -19 -25 -20 33 0 c25 0 32 4 32 19 0 12 7 20 18 20 9 0 33 3 52 7 19 4 50
8 68 8 17 1 32 5 32 10 0 4 6 6 14 3 8 -3 21 4 30 18 13 19 24 23 63 23 26 0
53 1 59 1 13 1 34 45 34 71 0 16 7 20 30 20 17 0 30 -4 30 -10 0 -5 -8 -10
-18 -10 -35 0 -18 -46 23 -61 12 -5 25 60 14 67 -20 12 -6 23 34 27 23 2 50 4
60 5 11 1 17 -5 17 -18z m4488 -95 c8 -7 -11 -134 -18 -130 -5 3 -6 14 -3 25
3 11 0 20 -6 20 -6 0 -12 -4 -12 -10 -1 -5 -2 -14 -3 -18 0 -5 -9 -17 -19 -27
-10 -9 -16 -24 -13 -31 8 -21 -4 -44 -23 -44 -11 0 -12 -3 -4 -8 15 -9 4 -27
-17 -27 -8 0 -15 -7 -15 -15 -1 -8 -7 -26 -15 -40 l-14 -25 -7 25 c-10 37 -10
90 0 90 19 0 -8 113 -32 131 -4 3 -4 27 -1 53 l7 48 96 -7 c53 -4 98 -9 99
-10z m5787 -7 c18 -3 20 -11 20 -68 0 -36 -6 -76 -12 -90 -7 -14 -13 -35 -13
-47 0 -13 -9 -32 -19 -42 -11 -11 -17 -22 -13 -25 3 -3 -1 -6 -9 -6 -8 0 -20
-9 -27 -20 -7 -12 -18 -17 -29 -13 -10 4 -14 2 -10 -4 4 -6 -3 -8 -20 -5 -19
4 -30 -1 -44 -19 -10 -13 -21 -20 -25 -17 -9 10 -11 177 -1 181 4 1 9 23 12
50 3 26 16 69 30 95 17 33 23 39 19 19 -5 -22 -3 -26 10 -21 9 3 16 13 16 22
0 11 3 13 11 5 14 -14 59 -4 66 14 3 8 8 10 12 5 3 -5 15 -11 26 -14z m-13659
-37 c7 -31 9 -32 102 -46 23 -4 42 -12 42 -18 0 -8 3 -8 11 0 10 10 43 5 99
-15 8 -3 31 -6 50 -8 38 -2 85 -10 85 -14 0 -1 12 -3 28 -4 20 -1 27 3 27 17
0 15 5 17 38 11 20 -4 39 -10 42 -13 3 -3 21 -7 40 -8 31 -2 33 -1 11 8 -19 7
-21 12 -11 24 6 7 10 24 8 37 -2 16 1 22 12 19 8 -2 33 -6 55 -7 88 -6 105
-13 106 -42 1 -15 1 -33 0 -39 -1 -7 5 -13 14 -13 12 0 15 -6 10 -19 -4 -14 0
-21 14 -26 10 -3 22 -12 25 -20 4 -12 -4 -15 -33 -15 -23 0 -41 5 -43 12 -3 7
-8 -6 -12 -30 -3 -24 -3 -48 0 -54 5 -8 1 -9 -11 -5 -14 6 -16 3 -12 -13 3
-11 -1 -27 -9 -34 -11 -12 -11 -16 2 -27 8 -7 13 -18 10 -25 -3 -8 0 -11 10
-7 8 3 14 -1 15 -11 1 -9 2 -21 3 -28 0 -6 9 -12 20 -14 22 -3 42 -21 33 -30
-3 -3 -16 1 -29 10 -34 24 -44 19 -18 -9 25 -26 19 -36 -6 -10 -13 13 -17 12
-34 -5 -26 -26 -25 -30 8 -31 21 -1 23 -3 6 -6 -28 -5 -38 -42 -19 -63 8 -9
15 -27 15 -39 0 -12 5 -32 11 -43 8 -15 8 -19 0 -14 -17 11 -13 -3 9 -31 22
-28 27 -63 9 -63 -6 0 -9 -6 -6 -14 3 -8 -2 -16 -14 -19 -10 -3 -19 -11 -18
-19 0 -10 2 -10 6 0 2 6 9 10 13 7 14 -8 0 -35 -18 -35 -8 0 -12 -3 -9 -7 4
-3 2 -12 -3 -19 -8 -9 -6 -12 7 -10 19 1 37 14 44 32 2 6 15 8 28 4 21 -5 22
-7 9 -20 -8 -8 -13 -21 -10 -29 3 -10 0 -12 -12 -8 -9 4 -16 1 -16 -5 0 -7 -4
-7 -13 0 -7 6 -19 7 -26 3 -10 -6 -9 -10 4 -15 14 -5 15 -9 5 -21 -10 -12 -16
-13 -26 -4 -10 8 -14 8 -14 0 0 -6 -4 -11 -10 -11 -5 0 -10 6 -10 14 0 8 -7
17 -16 20 -10 4 -14 15 -11 33 3 16 -1 34 -9 40 -10 10 -17 7 -33 -16 -11 -15
-18 -31 -14 -35 3 -3 1 -6 -6 -6 -7 0 -9 -5 -6 -10 4 -6 10 -8 15 -5 11 7 19
-30 13 -56 -3 -11 -11 -18 -18 -15 -8 3 -11 -2 -8 -15 4 -15 2 -18 -12 -13
-10 4 -15 14 -12 25 5 20 -21 35 -36 20 -7 -7 -4 -19 8 -37 9 -14 13 -24 7
-20 -5 3 -12 -1 -15 -8 -5 -12 -13 -13 -42 -5 -19 6 -39 7 -44 4 -5 -3 -12 -1
-16 5 -3 5 -14 10 -25 10 -20 0 -32 22 -24 44 3 8 0 17 -7 21 -7 5 -10 3 -7
-6 3 -8 -3 -21 -12 -29 -31 -28 -68 -92 -63 -109 3 -10 2 -12 -4 -5 -4 6 -21
10 -38 9 -23 -1 -32 -9 -43 -35 -7 -18 -11 -41 -9 -51 3 -10 -1 -20 -9 -23 -8
-3 -14 -12 -14 -21 0 -21 -46 -19 -59 3 -14 23 -14 6 0 -20 10 -19 9 -20 -10
-15 -12 3 -19 1 -16 -3 11 -17 353 -122 377 -115 14 4 18 3 11 -2 -9 -6 1 -16
32 -31 25 -12 45 -29 45 -37 0 -22 -21 -18 -27 5 -3 11 -7 20 -9 20 -2 0 -70
20 -151 44 -81 25 -151 42 -156 39 -5 -3 -12 -1 -16 4 -7 12 -137 62 -247 96
-65 20 -84 22 -97 12 -9 -7 -17 -17 -17 -23 0 -15 -30 -3 -54 20 -10 11 -21
17 -24 13 -4 -3 0 -10 8 -15 23 -15 9 -12 -55 10 -31 11 -61 17 -66 14 -5 -3
-9 3 -9 13 -1 38 -31 58 -138 93 l-107 35 -3 94 c-3 101 1 126 19 115 8 -4 7
-9 -2 -15 -11 -7 -10 -9 3 -9 9 0 20 5 23 10 6 10 45 14 45 5 0 -3 -7 -17 -17
-31 -15 -24 -15 -25 5 -31 12 -3 19 -9 16 -14 -3 -5 -14 -5 -25 1 -15 9 -19 7
-19 -5 0 -9 5 -13 10 -10 6 3 10 1 10 -4 0 -16 36 -13 50 4 15 18 31 20 24 2
-2 -7 -18 -18 -35 -24 -26 -10 -34 -9 -46 2 -17 17 -33 20 -33 5 0 -5 7 -10
15 -10 8 0 15 -4 15 -10 0 -5 -9 -10 -21 -10 -37 0 -11 -16 47 -29 47 -11 58
-11 66 0 8 11 9 10 5 -3 -3 -9 -1 -19 6 -22 7 -3 4 -4 -5 -3 -9 1 -17 -1 -17
-5 -3 -36 -1 -39 34 -32 22 4 35 2 35 -5 0 -6 -8 -8 -17 -5 -15 5 -15 4 1 -6
15 -10 20 -9 27 1 13 21 5 44 -14 43 -13 -2 -15 1 -7 11 8 9 6 14 -6 19 -9 4
-15 9 -12 11 8 9 38 -6 38 -19 0 -6 12 -13 26 -14 20 -1 24 2 20 16 -8 24 7
44 27 36 9 -3 14 -11 11 -16 -4 -6 -10 -5 -16 3 -7 11 -8 9 -6 -5 2 -13 12
-20 30 -20 24 -1 27 2 22 19 -5 15 -3 17 6 8 9 -8 9 -23 2 -57 -7 -33 -7 -46
1 -43 15 5 21 127 6 127 -8 0 -8 5 2 18 13 16 13 16 -7 0 -11 -10 -24 -18 -28
-18 -12 0 -33 25 -29 35 2 6 -10 16 -27 23 -17 8 -27 18 -24 23 3 6 -5 8 -19
5 -26 -5 -35 0 -57 28 -15 19 -15 19 15 1 17 -11 27 -15 23 -10 -4 4 -3 14 3
21 9 10 7 15 -5 20 -9 3 -14 10 -11 14 3 5 1 11 -5 15 -5 3 -10 13 -10 22 0
16 0 16 83 -2 10 -2 17 2 17 12 0 25 32 44 49 30 11 -9 13 -9 8 0 -4 6 -3 14
2 18 16 9 41 66 41 91 0 13 9 29 20 36 23 15 27 33 6 25 -8 -3 -17 0 -20 8 -6
16 19 39 33 30 6 -3 8 0 5 8 -3 8 3 22 12 32 20 19 33 4 16 -18 -15 -19 -24
-85 -12 -92 6 -4 10 -3 9 2 -5 26 2 42 16 37 15 -6 19 4 15 40 -1 10 8 27 19
37 12 11 21 24 21 29 0 16 -18 11 -29 -7 -5 -10 -13 -14 -18 -10 -4 5 4 19 20
32 15 13 27 27 27 30 0 7 40 52 95 105 l40 39 22 -21 c13 -12 23 -19 23 -15 0
3 -11 16 -24 29 -19 19 -22 28 -15 47 l9 23 21 -23 c23 -26 23 -24 0 51 -9 30
-9 33 3 17 10 -13 16 -15 22 -6 4 7 0 17 -9 24 -10 7 -17 17 -17 24 0 6 -4 11
-8 11 -12 0 -42 56 -42 78 0 11 5 22 11 24 9 3 9 10 0 26 -8 15 -8 22 -1 22 6
0 13 -13 16 -29z m-526 -106 c0 -19 34 -37 54 -29 13 5 16 -1 17 -27 1 -19 3
-46 5 -62 1 -15 -1 -25 -7 -22 -5 4 -9 -3 -9 -14 0 -25 9 -27 25 -4 11 15 15
15 29 4 9 -7 16 -22 16 -32 0 -10 8 -23 18 -28 10 -5 18 -20 19 -33 1 -12 -1
-18 -5 -13 -4 6 -14 11 -23 11 -14 1 -13 -10 12 -80 32 -90 37 -139 15 -130
-8 3 -17 -3 -20 -14 -4 -11 -17 -23 -29 -26 -24 -6 -44 13 -54 52 -4 19 -10
22 -29 18 -12 -3 -25 -2 -28 3 -3 5 6 9 20 9 33 0 38 6 25 30 -7 14 -8 29 -2
45 7 17 5 43 -5 83 -8 33 -16 68 -18 80 -1 11 -6 26 -10 32 -4 6 -2 21 5 33 8
16 8 20 0 14 -8 -5 -10 1 -5 20 5 21 1 31 -25 54 -29 26 -43 50 -21 36 6 -3
10 -1 10 5 0 6 5 8 10 5 6 -3 10 -13 10 -20z m10285 -26 c3 -4 -6 -77 -20
-160 -24 -144 -24 -154 -8 -163 16 -9 16 -10 -2 -16 -11 -4 -20 -16 -20 -26 0
-15 -9 -20 -42 -22 -42 -3 -43 -2 -43 27 0 17 -3 31 -7 32 -44 3 -94 11 -118
18 -20 6 -2 7 53 4 l82 -6 2 34 c0 19 2 39 3 44 2 14 16 163 18 205 1 19 5 37
9 40 10 8 87 -1 93 -11z m-8263 -250 c11 -6 43 -11 70 -12 56 0 67 -9 37 -30
-15 -11 -19 -20 -12 -32 9 -15 11 -15 23 0 7 9 13 29 13 46 0 19 5 29 15 29 8
0 12 -6 9 -15 -4 -8 -3 -17 2 -19 4 -3 7 -20 6 -38 -2 -26 5 -40 32 -67 31
-30 39 -33 79 -28 24 2 44 1 44 -4 0 -5 -7 -9 -16 -9 -13 0 -14 -3 -5 -14 13
-16 -2 -32 -19 -21 -5 3 -20 -1 -32 -11 -14 -10 -16 -14 -6 -11 12 4 20 -5 32
-34 9 -22 28 -58 42 -81 17 -27 23 -43 15 -46 -6 -2 -11 -10 -11 -18 0 -8 -6
-14 -13 -14 -16 0 -51 -37 -60 -63 -4 -10 -11 -16 -16 -13 -5 3 -21 -4 -35
-15 -26 -21 -27 -21 -48 -3 -11 11 -30 32 -41 48 l-21 29 22 -5 c22 -6 22 -6
-3 23 -23 29 -24 31 -9 55 13 19 14 27 4 39 -8 9 -8 15 -2 15 6 0 12 -6 15
-12 2 -7 8 -9 13 -5 5 5 2 14 -8 21 -9 7 -23 34 -30 59 -7 26 -17 47 -23 47
-5 0 1 9 15 20 23 18 23 19 3 14 -15 -4 -25 0 -33 15 -9 18 -7 25 13 44 16 15
22 27 16 37 -4 8 -10 23 -13 33 -4 11 -16 17 -36 17 -16 0 -30 5 -30 10 0 6
-6 10 -14 10 -8 0 -18 5 -21 10 -8 13 11 13 37 -1z m2126 -24 c-4 -17 -1 -25
9 -25 11 0 13 7 9 26 -5 19 -3 25 6 22 14 -5 19 -80 8 -99 -4 -5 -24 -11 -46
-11 -35 -2 -39 -5 -41 -30 -2 -26 9 -34 40 -29 4 0 8 -2 8 -6 9 -59 8 -63 -17
-63 -17 0 -28 9 -39 33 -8 17 -12 22 -9 10 2 -12 0 -24 -6 -28 -6 -3 -8 -10
-5 -15 3 -5 -3 -11 -14 -15 -11 -3 -22 -12 -25 -20 -4 -11 4 -14 35 -12 30 1
39 5 39 19 0 10 7 18 18 18 9 0 27 3 40 6 35 10 26 -12 -10 -22 -47 -14 -48
-34 -1 -34 34 0 38 -3 39 -26 2 -18 -5 -28 -22 -34 -13 -5 -24 -14 -24 -20 0
-6 7 -6 20 2 28 18 35 3 16 -37 -15 -30 -22 -35 -51 -35 -24 0 -35 5 -35 15 0
9 9 15 23 15 12 0 28 4 35 9 10 6 9 10 -7 14 -12 3 -21 1 -21 -4 0 -5 -6 -9
-14 -9 -17 0 -49 47 -41 60 12 19 -17 21 -31 2 -8 -12 -21 -19 -29 -16 -8 4
-15 1 -15 -5 0 -6 5 -11 10 -11 6 0 10 -5 10 -10 0 -7 -6 -7 -20 0 -28 15 -24
1 10 -39 33 -39 32 -50 -5 -43 -27 5 -35 22 -9 22 8 0 12 5 9 10 -3 6 -19 10
-35 10 -30 0 -109 56 -109 78 -1 18 8 15 46 -14 34 -26 63 -26 63 -2 0 10 -3
9 -9 -1 -8 -12 -16 -9 -44 15 -27 22 -34 35 -31 57 1 16 8 35 14 42 7 8 9 18
6 23 -3 5 3 17 14 27 12 10 20 31 20 48 0 29 1 29 19 13 12 -11 21 -14 26 -7
3 6 1 11 -4 11 -6 0 -11 4 -11 10 0 5 7 7 15 4 8 -4 16 -2 16 2 1 5 3 18 4 29
1 12 8 32 16 45 l14 25 3 -28 c2 -16 0 -36 -3 -45 -4 -10 -9 -30 -10 -45 -4
-37 15 -30 40 16 17 31 27 38 65 44 25 4 37 9 28 11 -9 2 -20 12 -23 23 -4 12
-13 18 -21 15 -8 -3 -14 0 -14 8 0 19 10 26 38 26 21 0 24 -4 20 -25z m9380
-240 c1 -1 -9 -54 -23 -118 -14 -64 -25 -119 -25 -123 0 -3 -7 -3 -16 0 -9 4
-23 1 -30 -5 -18 -15 -18 -13 6 100 11 52 20 109 20 127 0 32 1 33 33 27 17
-3 33 -7 35 -8z m-13543 -52 c14 -16 23 -34 20 -40 -2 -7 0 -13 5 -13 15 0 12
-43 -4 -65 -8 -11 -12 -25 -9 -32 3 -7 -1 -13 -9 -13 -22 0 -29 12 -16 27 9
11 8 13 -3 11 -9 -2 -14 7 -15 27 -1 47 -3 55 -14 55 -5 0 -10 -9 -10 -20 0
-15 -7 -20 -27 -21 l-28 -1 28 -10 c27 -10 33 -34 9 -32 -7 1 -21 2 -32 3 -18
1 -20 8 -19 60 l2 60 31 -6 c17 -3 37 -10 44 -16 9 -7 12 -2 12 22 0 17 2 31
5 31 2 0 16 -12 30 -27z m1431 -89 c0 -19 -3 -37 -8 -40 -4 -3 -8 -18 -8 -33
0 -15 -5 -32 -11 -38 -8 -8 -7 -17 5 -35 l17 -23 -7 28 c-5 22 -3 26 9 21 10
-3 18 2 22 17 4 13 14 29 21 37 12 11 14 10 14 -12 0 -14 4 -27 9 -30 5 -4 3
-19 -6 -36 -8 -17 -12 -38 -9 -46 7 -17 -19 -48 -33 -40 -14 9 -23 -25 -10
-40 6 -8 20 -14 31 -14 11 0 31 -13 45 -30 13 -16 32 -30 41 -30 21 0 48 -17
41 -25 -4 -3 -25 -2 -48 4 -51 11 -46 -1 8 -19 23 -7 41 -20 41 -28 0 -9 -6
-12 -16 -8 -10 4 -23 -3 -35 -16 -19 -23 -19 -23 -31 -3 -7 11 -13 24 -13 29
0 5 -6 11 -14 14 -11 4 -13 -4 -7 -37 7 -47 3 -51 -20 -16 -15 23 -15 27 -2
43 19 22 29 60 17 67 -5 3 -17 1 -27 -4 -13 -7 -22 -7 -30 1 -15 15 -15 3 -1
-25 12 -22 12 -22 -10 -3 -27 24 -28 7 -1 -27 31 -39 24 -42 -21 -6 -45 35
-113 131 -107 150 2 6 19 -11 38 -40 19 -28 40 -51 46 -51 6 0 17 12 25 28 22
44 22 49 -1 15 -12 -18 -23 -33 -25 -33 -1 0 -18 24 -38 54 -26 40 -33 56 -24
65 6 6 7 11 3 11 -5 0 -2 8 5 17 10 11 10 14 2 9 -7 -4 -13 -3 -13 3 0 5 4 12
10 16 5 3 7 12 4 19 -3 7 2 16 10 19 10 4 16 19 16 42 0 38 14 47 23 15 3 -11
10 -20 17 -20 6 0 10 6 7 13 -2 6 3 17 12 24 12 9 13 15 5 23 -9 9 -8 19 4 40
20 34 26 31 28 -16z m2758 -263 c-3 -20 -7 -84 -7 -140 -2 -98 -3 -104 -24
-112 -13 -5 -23 -7 -24 -6 -5 17 -6 147 -1 142 7 -6 8 -10 11 -36 0 -5 5 -8
11 -4 10 6 -8 55 -20 55 -17 0 -29 -29 -28 -65 1 -23 -4 -41 -11 -43 -8 -3 -6
-8 6 -17 26 -20 5 -50 -36 -51 -26 -1 -30 2 -26 18 8 23 -13 24 -22 1 -4 -10
-10 -20 -14 -23 -5 -3 -10 -22 -13 -42 -4 -34 -2 -37 20 -35 14 1 29 9 34 17
7 11 12 12 18 4 5 -9 10 -8 19 2 9 9 9 15 2 20 -6 4 -2 12 11 21 12 8 24 12
28 8 4 -4 2 -10 -5 -12 -9 -3 -9 -10 0 -30 14 -31 -4 -47 -61 -58 -20 -4 -50
-12 -67 -19 -72 -31 -90 -38 -95 -34 -3 1 -4 80 -2 173 3 139 6 175 21 200 20
34 46 40 46 10 0 -11 3 -25 8 -32 8 -13 -1 -43 -14 -43 -5 0 -9 5 -9 10 0 6
-4 10 -9 10 -5 0 -9 -22 -9 -50 0 -29 5 -50 11 -50 7 0 7 -4 -1 -12 -17 -17
-15 -65 2 -71 10 -4 19 5 28 24 7 16 15 29 18 29 10 0 -2 74 -13 90 -8 11 -8
13 1 5 7 -6 28 -9 47 -7 26 3 35 9 35 23 0 10 7 19 15 19 8 0 16 9 16 20 1 11
2 26 3 33 4 20 -6 30 -15 16 -8 -12 -10 -12 -18 0 -7 11 -11 9 -21 -9 -10 -18
-14 -20 -21 -9 -5 8 -9 10 -9 5 0 -13 -30 15 -30 29 0 6 26 18 58 25 31 8 77
21 102 30 25 10 48 15 53 13 4 -2 4 -21 1 -42z m-4211 -174 c11 3 17 -2 17
-14 0 -15 2 -16 10 -3 9 13 11 13 20 0 5 -8 10 -10 10 -5 0 6 7 1 15 -9 8 -11
15 -14 15 -8 0 7 7 12 15 12 8 0 15 -7 15 -16 0 -14 3 -14 15 -4 8 7 15 9 15
4 0 -5 5 -2 11 6 9 12 9 11 3 -5 -4 -11 -7 -28 -8 -37 0 -18 -26 -26 -26 -8 0
5 -6 7 -13 4 -7 -2 -39 5 -71 16 -33 11 -61 18 -63 16 -2 -2 39 -18 92 -36 52
-18 95 -37 95 -41 0 -4 -56 11 -125 34 -69 23 -125 45 -125 50 0 4 11 5 25 1
14 -3 25 -2 25 4 0 5 -8 9 -17 8 -11 -1 -19 9 -24 32 l-6 32 31 -18 c17 -10
39 -17 49 -15z m702 -200 c126 -40 369 -128 379 -138 13 -12 -9 -12 -32 1 -28
16 -122 40 -122 31 0 -5 7 -14 15 -21 10 -9 15 -9 15 -1 0 16 16 14 34 -5 20
-20 20 -34 1 -34 -8 0 -15 6 -15 13 0 9 -13 13 -39 13 -34 -1 -37 -3 -27 -18
6 -11 18 -16 28 -12 13 4 18 0 18 -15 0 -22 -14 -28 -25 -11 -3 6 -13 10 -21
10 -31 0 -1 -20 52 -36 29 -8 60 -21 67 -28 7 -7 18 -11 25 -8 14 4 15 1 6
-22 -6 -17 -44 -23 -44 -7 0 5 -18 12 -40 16 -23 4 -40 12 -40 20 0 8 -7 11
-20 8 -23 -6 -22 -27 1 -29 8 0 17 -2 22 -4 4 -1 12 -3 18 -4 6 0 17 -9 24
-19 10 -13 14 -15 18 -5 3 7 6 3 6 -9 1 -28 -14 -29 -36 -3 -10 11 -29 20 -43
20 -39 0 -47 11 -48 65 0 28 -1 64 -2 80 -3 47 -1 53 18 57 9 2 -20 17 -66 32
-46 15 -86 25 -90 22 -3 -4 4 -9 16 -13 12 -3 22 -12 22 -19 0 -15 -12 -18
-24 -6 -4 4 -13 7 -19 7 -7 0 -15 14 -18 30 -6 27 -14 17 -10 -12 2 -16 1 -16
-37 3 -18 8 -32 20 -32 25 0 13 14 11 28 -3 13 -13 27 -5 18 10 -3 6 -36 20
-73 32 -38 11 -74 24 -80 26 -7 3 -13 1 -13 -5 0 -6 7 -11 15 -11 11 0 15 -12
15 -45 0 -25 -2 -45 -5 -45 -3 0 -22 7 -43 16 -20 10 -44 17 -52 18 -9 1 -16
13 -18 29 -4 33 -19 35 -32 5 l-9 -23 0 23 c-1 12 4 22 9 22 6 0 10 5 10 10 0
6 -7 10 -15 10 -9 0 -15 10 -15 26 0 15 -4 23 -11 18 -6 -3 -9 -15 -6 -25 3
-11 1 -19 -4 -19 -6 0 -5 -8 1 -19 12 -24 13 -51 1 -51 -12 0 -26 57 -22 89 6
49 17 50 155 5 72 -23 167 -53 211 -67z m2915 105 c0 -4 -32 -14 -72 -21 -64
-12 -150 -37 -138 -41 28 -8 47 -6 67 7 17 11 27 13 35 5 16 -16 -1 -33 -28
-26 -15 4 -24 2 -24 -6 0 -7 -6 -10 -14 -7 -8 3 -20 -1 -27 -9 -7 -8 -18 -13
-26 -10 -7 3 -13 2 -13 -3 0 -18 43 -20 56 -3 16 21 32 7 18 -16 -6 -9 -23
-16 -39 -17 -16 0 -30 -5 -32 -12 -5 -14 29 -12 68 4 39 17 99 24 99 13 0 -19
18 -10 23 12 4 12 9 19 13 15 4 -3 0 -17 -8 -29 -16 -24 -140 -65 -146 -48 -3
9 -62 -21 -62 -32 0 -17 23 -18 34 -2 9 12 19 15 32 10 18 -8 18 -8 -2 -16
-12 -5 -25 -13 -29 -19 -3 -6 -17 -11 -30 -11 -22 0 -24 3 -19 37 2 20 6 39 9
41 3 3 1 10 -5 17 -5 6 -8 24 -6 40 2 17 4 36 5 44 1 7 7 11 16 7 8 -3 15 -1
15 5 0 6 -10 9 -22 6 -13 -3 -75 -17 -139 -32 -112 -25 -116 -27 -111 -51 3
-19 0 -24 -17 -24 -24 0 -27 10 -9 28 17 17 1 16 -95 -9 -148 -37 -157 -40
-157 -51 0 -7 5 -6 15 2 19 15 20 14 28 -26 8 -40 -9 -64 -48 -69 -17 -2 -31
-4 -33 -4 -2 -1 -1 -5 3 -11 4 -6 15 -6 32 1 40 15 52 -3 51 -77 -1 -45 -5
-64 -14 -64 -7 0 -15 4 -19 10 -3 5 -12 7 -20 3 -9 -3 -15 1 -15 10 0 22 -80
28 -98 7 -11 -13 -12 -12 -10 5 2 13 12 21 30 23 15 2 32 10 38 18 11 12 8 13
-19 8 -24 -5 -31 -3 -31 9 0 18 24 39 41 35 10 -2 13 6 11 25 -2 22 2 30 17
34 12 3 21 10 21 15 0 5 -10 6 -22 2 -13 -5 -33 -8 -45 -7 -18 1 -23 -4 -23
-26 0 -20 2 -23 10 -11 8 13 11 13 27 -2 16 -17 16 -18 -4 -18 -12 0 -25 -4
-28 -10 -3 -5 -13 -10 -22 -10 -11 0 -14 7 -11 24 4 20 0 25 -24 28 -16 3 -31
1 -34 -4 -3 -4 -1 -8 4 -8 12 0 3 -38 -11 -47 -6 -4 -8 3 -3 21 4 15 2 26 -4
26 -5 0 -10 12 -10 26 0 22 -2 25 -15 14 -12 -10 -15 -10 -15 4 0 20 50 22 69
4 10 -11 12 -9 9 6 -3 17 20 25 207 72 266 67 299 75 535 128 229 51 210 48
210 38z m-2910 -33 c36 -10 74 -23 85 -27 11 -5 63 -22 115 -39 81 -25 95 -33
98 -52 3 -21 1 -23 -25 -17 -15 4 -64 20 -108 36 -44 16 -93 32 -110 36 -16 4
-39 13 -50 20 -11 7 -23 13 -28 13 -4 0 -23 3 -42 7 -29 5 -35 11 -35 31 0 20
4 24 18 18 9 -4 46 -16 82 -26z m695 -177 c0 -16 3 -34 8 -38 10 -11 9 -42 -3
-49 -6 -3 -14 4 -19 17 -7 17 -9 9 -7 -33 1 -30 6 -60 9 -66 4 -7 3 -14 -3
-18 -15 -9 -12 -48 4 -71 21 -27 36 -8 44 57 4 29 13 54 20 57 6 2 12 -1 12
-7 0 -6 9 -11 20 -11 14 0 18 5 13 17 -5 12 -2 15 10 10 14 -5 17 1 17 38 0
33 -4 45 -15 45 -9 0 -15 10 -16 28 l-1 27 -11 -27 c-11 -29 -27 -38 -27 -15
0 7 -9 18 -20 25 -22 14 -27 42 -7 42 6 0 28 -5 47 -11 33 -9 73 -18 112 -23
10 -1 21 -5 24 -9 4 -3 7 -83 8 -177 1 -165 0 -170 -19 -164 -11 4 -21 7 -22
8 -7 5 -9 126 -2 126 5 0 9 -7 9 -17 0 -9 3 -14 6 -10 10 10 -5 58 -16 52 -6
-3 -10 1 -10 10 0 9 5 13 10 10 6 -3 10 -2 10 4 0 14 -16 22 -33 15 -16 -6
-18 -55 -4 -65 5 -4 4 -16 -2 -28 -9 -16 -8 -26 5 -46 16 -24 16 -27 0 -43
-15 -15 -18 -15 -41 10 -14 15 -25 34 -25 42 0 8 -4 18 -10 21 -5 3 -10 -3
-10 -15 0 -12 -4 -19 -9 -16 -12 7 -20 -26 -14 -56 6 -32 42 -56 54 -36 8 12
13 4 10 -14 -2 -12 17 -10 24 2 4 6 2 17 -4 24 -9 11 -6 14 14 14 17 0 24 -5
21 -13 -2 -7 -1 -29 4 -49 10 -45 1 -51 -47 -31 -44 19 -118 36 -150 36 -22
-1 -22 0 -22 206 -1 170 2 211 15 231 20 30 39 23 39 -16z m605 -3 c0 -24 3
-30 16 -25 9 3 22 6 30 6 8 0 22 9 31 20 10 11 24 20 33 19 10 0 11 -2 3 -6
-23 -9 -13 -20 15 -17 53 7 -75 -26 -203 -52 -71 -15 -138 -30 -147 -35 -13
-7 -18 -3 -23 22 -4 17 -4 33 -1 37 7 6 210 60 234 61 7 1 12 -11 12 -30z
m-3010 -139 c11 -11 20 -25 20 -31 0 -5 4 -8 9 -5 15 9 43 -5 37 -19 -3 -9 2
-11 15 -8 17 5 20 1 18 -28 -1 -19 1 -44 5 -56 6 -18 3 -25 -16 -32 -41 -15
-113 -21 -128 -11 -11 7 -11 10 -2 10 7 0 10 5 7 10 -4 6 -10 8 -15 5 -5 -3
-11 -1 -15 4 -3 5 3 15 12 21 17 11 17 11 1 6 -10 -3 -18 0 -18 6 0 6 -9 3
-20 -7 -11 -10 -17 -21 -15 -25 3 -4 -6 -11 -20 -14 -33 -8 -32 -24 3 -29 25
-4 24 -4 -6 -6 -18 0 -31 -5 -28 -10 10 -16 -48 -21 -64 -5 -12 12 -12 14 2
14 9 0 20 5 23 10 5 8 -9 9 -42 4 -35 -4 -58 -1 -83 10 -23 11 -27 14 -10 10
51 -11 54 -10 56 24 1 21 -3 32 -12 32 -8 0 -11 -6 -8 -15 8 -19 -10 -19 -26
0 -7 8 -17 12 -23 8 -16 -10 -47 -11 -47 -2 0 11 31 19 74 21 42 1 52 10 31
28 -10 9 -15 9 -15 1 0 -6 -10 -11 -22 -11 -22 1 -23 1 -4 15 11 8 14 15 8 15
-25 0 -10 25 16 26 54 2 87 8 100 17 8 6 12 6 12 -1 0 -6 -6 -14 -12 -18 -9
-6 -5 -10 12 -15 l25 -6 -25 -11 c-22 -10 -19 -11 27 -11 38 -1 55 -6 61 -18
6 -10 16 -14 26 -10 20 8 21 27 1 27 -8 0 -15 8 -15 18 0 12 2 14 8 4 5 -7 16
-10 25 -6 13 5 17 1 17 -16 0 -17 4 -20 23 -15 22 7 22 7 2 -9 -19 -15 -19
-15 12 -16 26 0 31 -3 28 -20 -2 -11 0 -20 6 -20 12 0 11 14 -3 61 -8 29 -17
39 -32 40 -20 0 -20 1 -2 8 14 5 16 10 8 15 -7 4 -17 4 -22 1 -13 -8 -24 20
-16 40 7 20 12 19 36 -5z m3655 -195 c-16 -13 -33 -24 -38 -25 -4 0 -5 -11 -1
-24 5 -19 0 -26 -23 -35 -26 -10 -26 -11 10 -5 48 7 42 -11 -7 -20 -26 -5 -36
-13 -40 -32 -8 -32 0 -44 9 -14 5 17 13 20 37 16 17 -3 35 -9 40 -14 11 -11
98 34 98 50 0 7 -5 7 -13 -1 -18 -14 -30 -2 -15 16 8 11 7 12 -6 7 -9 -3 -16
-2 -16 4 0 5 11 13 24 16 13 3 26 15 29 26 3 11 11 20 17 20 7 0 10 -7 6 -15
-3 -9 0 -15 8 -15 8 0 17 -6 19 -12 4 -9 6 -8 6 3 1 8 -5 21 -11 28 -11 11
-10 13 5 8 10 -4 31 0 47 8 34 17 40 18 40 6 0 -5 -13 -14 -30 -20 -16 -5 -30
-17 -30 -25 0 -27 -39 -81 -62 -88 -20 -5 -20 -6 7 -8 26 -1 27 -3 10 -10 -11
-5 -32 -9 -46 -9 -23 -1 -28 -8 -43 -59 -9 -32 -16 -65 -16 -73 0 -31 -15 -41
-43 -28 -28 12 -40 42 -25 57 6 6 6 12 -1 16 -11 7 -34 -28 -24 -38 3 -3 -1
-6 -11 -6 -9 0 -15 4 -11 9 3 5 1 12 -5 16 -14 9 -13 21 5 38 12 13 12 17 1
26 -11 9 -15 3 -20 -34 -7 -44 -18 -53 -44 -37 -9 6 -10 16 -4 33 5 13 13 50
16 82 5 39 13 61 25 69 18 11 18 41 -1 65 -11 14 7 27 27 19 8 -3 17 0 21 6 4
7 9 6 15 -3 6 -10 9 -11 9 -1 0 6 9 12 19 12 11 0 23 5 26 10 3 6 14 10 23 10
12 0 9 -7 -13 -25z m-185 -40 c0 -3 -20 -14 -44 -25 l-44 -18 -12 -85 -12 -85
-36 10 c-38 11 -64 36 -54 52 3 5 -2 7 -11 3 -9 -3 -17 -1 -20 6 -2 6 -6 4
-10 -6 -3 -9 -2 -17 4 -17 6 0 18 -8 27 -17 16 -16 16 -16 0 -10 -10 3 -18 3
-18 -2 0 -4 -11 -6 -25 -3 -14 2 -25 8 -25 13 0 5 -7 9 -16 9 -9 0 -12 -5 -8
-11 4 -7 1 -10 -7 -7 -10 4 -13 21 -12 60 l2 56 -32 -9 c-18 -5 -93 -25 -167
-45 -74 -19 -143 -38 -152 -40 -10 -3 -18 -1 -18 4 0 5 31 17 70 26 38 10 97
28 130 42 33 13 75 24 93 24 18 0 69 9 112 21 94 24 125 20 125 -18 0 -34 10
-24 19 19 6 30 10 33 42 34 20 1 44 6 55 12 20 12 44 16 44 7z m515 -5 c3 -5
-12 -17 -34 -26 -23 -9 -41 -18 -41 -21 0 -2 9 -13 20 -25 15 -16 20 -18 20
-7 0 8 -5 20 -12 27 -20 20 7 14 34 -8 14 -10 28 -17 30 -14 6 5 184 54 199
54 6 0 8 -4 5 -8 -3 -5 -44 -19 -91 -32 -47 -13 -85 -27 -85 -32 0 -6 -7 -8
-15 -4 -26 9 -61 -14 -71 -47 -9 -33 -41 -49 -53 -28 -5 8 -17 7 -39 -5 -17
-8 -36 -13 -41 -10 -19 12 -20 -12 -2 -28 15 -14 29 -16 72 -10 30 5 46 10 37
12 -33 7 -18 22 21 22 30 0 44 6 56 23 13 19 17 20 26 7 8 -11 9 -8 4 13 -5
25 -3 28 14 22 10 -3 74 10 141 30 67 19 126 35 131 35 21 0 7 -18 -18 -24
-16 -4 -76 -20 -134 -37 -105 -31 -107 -31 -125 -72 l-19 -42 -85 -5 c-47 -3
-90 -9 -96 -12 -6 -4 -19 -38 -29 -75 -10 -37 -24 -76 -32 -85 -13 -15 -12
-17 9 -21 l23 -4 -22 -8 c-15 -5 -23 -15 -23 -31 0 -29 -8 -34 -43 -27 -21 4
-25 8 -15 14 9 6 6 9 -12 9 -17 0 -21 3 -12 9 11 6 10 11 -3 25 -21 20 -32 21
-15 1 8 -9 8 -15 2 -15 -6 0 -18 -3 -27 -6 -10 -4 -15 -2 -13 7 2 8 -3 13 -10
11 -9 -2 -11 4 -7 18 5 15 3 21 -7 19 -31 -4 -49 1 -42 13 5 8 2 9 -10 5 -14
-5 -17 -3 -13 8 4 8 1 17 -5 21 -7 4 -8 3 -4 -4 4 -7 2 -12 -4 -12 -7 0 -9 8
-5 19 3 10 0 30 -6 45 -15 31 -5 45 21 28 14 -9 20 -9 23 1 3 9 7 9 17 0 7 -6
18 -9 25 -6 23 8 53 -15 60 -46 6 -26 27 -43 57 -46 4 0 13 -6 20 -12 13 -14
38 -17 38 -5 0 4 2 41 4 82 3 59 2 69 -5 45 -6 -16 -15 -41 -20 -54 l-10 -23
-28 30 c-20 20 -28 39 -27 60 1 32 16 58 16 28 0 -16 1 -16 16 -2 8 9 19 16
24 16 4 0 13 13 18 29 8 24 18 30 52 36 30 5 39 10 29 16 -12 8 -12 11 1 19 8
5 21 10 27 10 7 0 12 11 11 25 -2 19 -7 24 -18 19 -27 -12 -65 -17 -57 -8 6 6
151 76 174 83 1 1 5 -3 8 -9z m-1700 -182 c-3 -18 -3 -28 1 -21 3 7 12 9 20 6
8 -3 14 0 14 6 0 6 8 11 18 11 16 -1 16 -2 -1 -15 -18 -13 -18 -14 2 -34 25
-25 31 -26 31 -6 0 8 6 15 14 15 8 0 22 3 32 7 13 5 16 3 11 -10 -5 -14 3 -17
55 -19 41 -2 63 -8 66 -17 3 -9 -2 -11 -17 -6 -12 3 -21 3 -20 -2 1 -4 1 -16
0 -26 -1 -17 -2 -17 -18 -2 -18 19 -77 15 -97 -6 -8 -8 -2 -9 24 -4 56 12 65
11 64 -7 -1 -14 2 -15 16 -8 22 12 106 12 134 1 21 -8 32 -46 16 -56 -5 -3
-18 -1 -29 5 -12 6 -22 6 -25 1 -11 -18 54 -24 79 -7 13 9 31 13 40 9 10 -3
20 -1 24 6 5 8 22 10 49 5 38 -6 42 -9 42 -35 0 -36 -8 -40 -54 -29 -31 7 -37
6 -34 -7 5 -24 74 -24 136 -1 69 27 78 16 14 -16 -28 -14 -52 -31 -54 -38 -4
-11 -8 -10 -21 0 -12 10 -21 11 -36 2 -17 -9 -20 -8 -14 6 4 12 3 15 -5 10
-14 -8 -62 21 -62 38 0 6 5 4 10 -4 9 -14 14 -7 11 14 -1 4 4 14 10 22 9 11 5
11 -24 -1 -20 -8 -46 -15 -57 -15 -11 0 -23 -7 -26 -15 -9 -22 -21 -18 -28 10
-4 15 -13 25 -24 25 -16 -1 -16 -2 1 -14 10 -8 14 -17 9 -20 -13 -8 -75 41
-85 66 -7 20 -8 20 -27 3 -12 -11 -20 -13 -20 -6 0 7 -9 9 -23 6 -18 -5 -26 0
-37 19 -7 14 -19 26 -27 26 -13 0 -17 12 -13 39 1 9 -4 12 -14 8 -11 -4 -18 1
-22 18 -3 13 -11 22 -18 19 -20 -8 -39 23 -32 51 9 37 26 31 21 -7z m2650 22
c20 -8 25 -15 20 -30 -8 -25 3 -26 21 -3 9 13 32 19 91 24 95 7 106 3 100 -27
-5 -27 0 -29 27 -9 13 10 24 11 37 4 13 -7 19 -6 19 1 0 6 4 8 10 5 5 -3 7 0
4 8 -12 32 92 26 156 -8 14 -7 39 -15 55 -18 109 -18 325 -83 325 -98 0 -10
-88 -5 -132 7 -9 3 -19 0 -23 -6 -3 -6 -11 -8 -16 -4 -5 3 -44 5 -87 5 -42 -1
-88 -2 -102 -2 -14 0 -76 3 -137 6 -82 4 -113 2 -113 -6 0 -7 -8 -9 -22 -4
-28 8 -25 8 -120 0 -58 -6 -95 -3 -146 10 -38 9 -78 15 -88 13 -16 -3 -19 4
-20 48 -1 27 -5 60 -8 72 -7 21 -5 22 58 22 35 0 77 -5 91 -10z m-1597 -70 c2
-5 9 -7 16 -4 15 6 16 -47 1 -58 -6 -5 -3 -8 6 -8 9 0 29 -11 44 -25 16 -13
38 -26 50 -28 13 -2 7 -6 -20 -12 -27 -5 -52 -20 -76 -46 l-36 -39 -81 0 -80
0 -35 -41 c-31 -36 -36 -39 -45 -23 -8 15 -13 16 -25 6 -11 -10 -17 -9 -27 3
-7 8 -19 15 -26 15 -14 0 -20 20 -6 20 4 0 18 3 31 7 19 5 23 3 19 -9 -9 -21
36 -11 80 19 19 12 42 23 50 23 8 0 13 3 9 6 -3 4 -35 -1 -71 -11 -38 -10 -80
-15 -101 -12 -19 3 -35 2 -35 -4 0 -5 -10 -8 -22 -6 -15 1 -26 -6 -36 -25 -7
-16 -18 -28 -24 -28 -6 0 -8 -3 -5 -7 9 -9 -22 -43 -40 -43 -7 0 -13 5 -13 10
0 6 7 10 15 10 16 0 35 30 35 57 0 11 17 29 40 43 l40 25 -28 14 c-15 8 -22
16 -15 18 7 2 22 -1 34 -8 19 -9 21 -9 16 4 -7 18 16 30 30 16 6 -6 22 -11 36
-13 14 -1 32 -8 39 -14 11 -8 14 -7 15 8 2 25 -14 35 -32 20 -8 -6 -19 -9 -25
-5 -17 11 -11 25 11 25 11 0 30 5 41 11 15 8 19 8 14 0 -4 -6 0 -11 8 -11 9 0
16 7 16 15 0 9 6 12 15 9 8 -4 15 -1 15 4 0 6 8 13 18 16 36 10 -75 -6 -131
-20 -77 -19 -169 -63 -160 -76 4 -8 0 -9 -11 -5 -10 4 -21 7 -25 7 -15 0 -7
30 13 49 18 17 57 30 171 60 17 4 41 11 54 16 16 5 21 4 17 -4 -4 -6 -16 -11
-27 -11 -10 0 -19 -4 -19 -9 0 -6 11 -6 28 -1 54 17 92 35 92 43 0 4 -4 6 -9
3 -8 -6 -21 15 -21 34 0 11 184 1 188 -10z m-2498 -124 c46 -21 36 -42 -31
-65 -34 -11 -64 -19 -67 -17 -2 3 17 16 44 29 46 23 46 24 21 31 -14 3 -37 1
-51 -6 -19 -8 -32 -8 -50 0 -13 6 -33 8 -45 5 -33 -8 -25 -20 11 -15 27 4 30
2 24 -13 -4 -11 -1 -22 6 -28 22 -15 -79 1 -113 18 -17 9 -29 22 -26 28 5 18
56 40 100 43 21 1 42 5 45 8 8 9 102 -4 132 -18z m3830 -40 c0 -8 6 -16 13
-19 6 -3 -8 -2 -32 1 -38 4 -43 3 -38 -11 5 -14 2 -15 -20 -6 -18 7 -28 6 -33
0 -3 -6 -23 -13 -43 -15 -23 -3 -35 -1 -32 4 4 6 1 10 -4 10 -6 0 -11 -4 -11
-8 0 -5 -20 -10 -45 -10 -24 -1 -69 -8 -99 -16 -89 -23 -164 -30 -181 -16 -10
9 -15 9 -15 1 0 -17 -21 -13 -36 7 -13 16 -13 16 -14 -1 0 -16 -6 -18 -51 -13
-59 6 -78 16 -31 16 33 0 43 14 17 24 -8 3 -15 10 -15 16 0 5 7 10 15 10 8 0
15 -4 15 -9 0 -12 59 -20 66 -9 3 5 11 4 18 -1 16 -14 29 -2 16 14 -14 17 32
24 225 31 88 4 162 8 164 10 2 2 37 4 78 4 56 0 73 -3 73 -14z m-6897 -8 c9 2
34 -13 55 -32 41 -40 52 -44 52 -20 0 23 34 13 38 -11 7 -47 13 -65 21 -65 6
0 11 10 13 22 l3 22 27 -25 c16 -15 28 -38 30 -59 4 -41 28 -54 28 -14 l0 27
25 -23 c26 -25 34 -70 13 -70 -7 0 -5 -5 5 -11 9 -6 15 -14 12 -20 -4 -5 -2
-9 4 -9 12 0 51 -40 51 -52 0 -5 -4 -6 -10 -3 -5 3 -10 2 -10 -4 0 -5 6 -12
13 -14 10 -4 10 -6 0 -6 -7 -1 -21 7 -31 17 -25 24 -144 117 -162 126 -8 4 0
-6 19 -23 19 -17 33 -33 30 -35 -9 -10 -129 106 -122 117 3 7 2 9 -2 4 -11
-10 -45 22 -39 37 3 7 -8 24 -23 37 -56 52 -103 113 -70 92 6 -4 20 -6 30 -5z
m3787 -72 c25 -28 37 -45 27 -37 -26 20 -32 7 -27 -59 2 -26 4 -29 7 -12 3 14
10 22 18 19 9 -4 11 1 7 15 -8 31 30 19 47 -16 10 -22 11 -34 1 -54 -10 -24
-13 -25 -21 -9 -6 9 -14 17 -20 17 -20 0 10 -35 50 -60 22 -14 41 -32 41 -40
0 -13 2 -13 9 -1 6 9 6 22 -1 34 -15 29 6 46 30 24 24 -22 34 -22 30 1 -2 12
4 17 22 17 20 0 26 -6 28 -29 2 -18 11 -30 23 -33 10 -3 19 -11 19 -18 0 -7 9
-15 20 -18 18 -5 20 -12 17 -51 -4 -49 7 -62 17 -21 4 14 13 25 21 25 12 0 12
-5 0 -40 -10 -28 -11 -41 -3 -46 16 -10 38 24 39 60 1 17 3 23 6 14 6 -22 23
-24 23 -3 0 9 -7 18 -15 21 -22 9 -18 23 4 17 11 -3 22 -15 26 -26 4 -15 8
-18 12 -9 3 7 -2 21 -11 31 -22 24 -20 41 4 41 13 0 24 -10 31 -27 5 -16 17
-33 26 -40 13 -10 14 -15 3 -28 -12 -14 -11 -27 5 -70 l8 -20 -16 20 c-16 20
-16 20 -17 -2 0 -14 6 -23 15 -23 24 0 65 -22 65 -36 0 -6 7 -14 15 -18 18 -7
20 -36 3 -37 -42 -2 -69 -10 -99 -28 -43 -27 -85 -27 -134 0 -44 24 -117 28
-255 16 -41 -3 -66 -4 -55 -1 11 2 40 9 65 15 57 14 130 42 130 50 0 13 -60
18 -90 8 -16 -6 -38 -8 -48 -3 -31 14 -126 10 -138 -6 -15 -18 -104 -16 -161
4 -21 7 -43 11 -50 9 -7 -2 -22 1 -35 8 -21 11 -22 11 -9 -4 12 -15 9 -16 -29
-12 -75 7 -66 27 25 50 47 13 60 13 67 3 6 -10 8 -9 8 2 0 9 8 17 18 18 20 2
149 40 142 42 -26 5 -157 3 -153 -2 2 -5 -1 -8 -6 -8 -6 0 -11 5 -11 11 0 6
-11 8 -27 5 -16 -3 -64 -8 -108 -11 -44 -3 -97 -8 -119 -11 -37 -6 -116 19
-116 36 0 4 -22 17 -50 29 -60 26 -66 45 -12 37 20 -3 41 -5 45 -6 5 0 5 -9 2
-20 -3 -11 -3 -20 2 -21 4 0 16 -2 27 -4 17 -3 53 11 66 26 5 6 112 36 161 46
15 3 30 0 33 -6 5 -7 -2 -11 -18 -11 -14 0 -26 -4 -26 -10 0 -5 8 -9 18 -8 38
3 54 -2 49 -16 -4 -10 6 -17 33 -24 51 -13 64 11 23 44 -16 13 -24 26 -19 31
5 4 11 2 13 -4 3 -7 9 -13 14 -13 6 0 8 4 5 9 -12 18 30 54 62 54 18 0 32 4
32 9 0 4 5 8 11 8 6 0 9 -7 5 -15 -6 -18 -5 -18 28 -5 53 20 26 29 -71 24 -54
-4 -100 -6 -103 -7 -21 -4 -50 18 -50 38 0 30 14 39 32 22 9 -9 24 -11 56 -4
46 9 51 24 15 42 -12 6 -28 17 -37 24 -17 14 -96 19 -115 6 -11 -6 -10 -9 0
-16 13 -8 -11 -6 -98 7 -17 2 -33 9 -35 15 -2 7 -12 7 -30 -1 -15 -7 -24 -18
-21 -26 3 -8 -5 -15 -24 -19 -15 -4 -52 -13 -81 -21 l-53 -15 40 -46 c43 -48
44 -63 6 -63 -13 0 -27 -4 -30 -10 -10 -16 -32 -12 -72 16 l-38 26 40 -6 c22
-3 32 -3 22 0 -10 3 -16 12 -13 19 2 7 -4 21 -15 31 -21 19 -26 40 -7 28 6 -4
8 -3 5 3 -4 6 -42 18 -84 28 -43 9 -86 21 -95 26 -10 5 -19 5 -23 -1 -12 -20
-65 -9 -124 26 -34 20 -64 40 -66 44 -9 14 312 5 330 -10 8 -7 15 -8 15 -2 0
5 11 13 24 16 13 3 32 9 43 13 16 6 17 5 3 -12 -14 -17 -13 -17 8 -11 13 4 28
3 35 -2 7 -6 31 -7 62 -2 28 5 61 9 75 9 20 1 22 -1 10 -10 -11 -8 -6 -9 20
-4 19 3 70 10 114 15 43 5 87 12 98 16 14 4 18 2 13 -5 -5 -9 1 -10 22 -4 15
4 65 8 110 7 87 -1 118 -13 110 -46 -3 -10 -1 -18 5 -18 6 0 9 29 6 76 -2 56
-1 71 7 58 5 -10 30 -41 55 -68z m870 45 c0 -5 -18 -12 -40 -16 -22 -4 -40
-11 -40 -16 0 -4 7 -6 15 -3 8 4 15 2 15 -4 0 -5 -10 -13 -22 -17 -47 -15 16
-17 81 -2 34 8 64 10 67 6 3 -5 -1 -11 -8 -13 -41 -14 -596 -116 -629 -116
-41 0 -16 18 39 28 31 6 121 23 199 37 79 14 153 30 165 35 21 8 19 9 -11 9
-19 1 -32 3 -29 6 8 8 59 18 87 18 15 -1 20 2 13 9 -8 8 -173 -17 -432 -66
-74 -14 -93 -14 -74 3 8 7 105 25 529 100 69 12 75 12 75 2z m750 -105 c0 -54
-29 -94 -124 -167 -38 -30 -121 -96 -185 -146 -107 -85 -142 -109 -126 -83 5
8 79 70 296 245 56 45 89 100 89 146 0 31 26 63 42 53 5 -3 8 -24 8 -48z
m-901 -282 c23 -38 26 -48 12 -40 -5 3 -11 -3 -14 -14 -3 -11 -1 -20 4 -20 5
0 9 5 9 10 0 18 15 10 31 -16 l17 -27 0 26 c0 15 -4 24 -9 21 -5 -3 -9 0 -9 6
0 7 16 10 43 8 l42 -3 1 -59 c2 -67 16 -85 68 -87 69 -4 85 -9 61 -19 -19 -8
-19 -8 -1 -16 13 -5 23 -2 32 10 10 15 21 17 62 11 44 -6 51 -4 55 12 4 14 5
13 6 -5 1 -23 1 -23 32 -5 17 10 35 26 40 36 5 9 17 17 25 17 24 0 74 -33 74
-48 0 -22 28 -43 65 -49 26 -4 35 -10 33 -22 -3 -13 -16 -16 -63 -16 -33 0
-75 4 -93 8 l-33 7 26 -24 c24 -22 24 -24 6 -29 -11 -3 -44 -3 -73 -2 -30 2
-67 -3 -87 -11 -35 -15 -76 -10 -66 7 4 5 -1 9 -11 9 -13 0 -11 4 7 20 22 18
20 18 -27 -3 -29 -12 -50 -25 -48 -28 9 -15 -86 -59 -128 -59 -10 0 -18 -4
-18 -10 0 -5 -6 -10 -14 -10 -7 0 -19 -7 -26 -15 -9 -11 -16 -13 -24 -5 -13
13 -39 13 -31 0 10 -17 -15 -40 -42 -40 -21 0 -23 -3 -14 -14 10 -11 8 -17 -6
-25 -10 -6 -13 -10 -8 -10 6 0 26 13 45 29 19 17 38 30 42 30 5 0 40 16 79 35
80 39 87 41 69 20 -7 -8 -9 -15 -5 -15 4 0 15 10 26 23 10 12 18 17 19 10 0
-6 9 -15 21 -18 12 -4 18 -12 15 -21 -6 -17 20 -19 30 -3 4 8 9 7 15 -2 15
-24 -19 -49 -62 -45 -22 2 -39 0 -39 -4 0 -4 -10 -11 -22 -15 -28 -9 -67 -16
-51 -9 18 8 4 33 -15 27 -14 -4 -14 -3 -3 5 8 6 20 8 28 5 13 -5 18 9 7 20 -9
9 -61 -19 -67 -37 -3 -8 -25 -25 -49 -37 -24 -12 -50 -27 -58 -34 -8 -7 -48
-20 -88 -29 -57 -12 -78 -13 -95 -4 -21 11 -21 11 -2 19 22 8 13 12 -25 10
-39 -3 -59 19 -53 56 4 24 9 30 22 26 9 -3 4 4 -11 16 -29 24 -35 49 -18 82 9
17 7 19 -17 20 -19 0 -2 9 52 28 44 15 90 33 102 40 29 15 116 31 123 23 3 -4
19 -12 35 -17 19 -7 31 -18 33 -33 2 -12 8 -20 13 -17 18 12 8 35 -23 51 -51
26 -62 41 -41 53 27 16 -1 14 -70 -4 -32 -8 -63 -15 -70 -15 -20 1 24 22 72
36 25 7 38 13 29 13 -15 1 -15 4 -3 29 14 25 13 27 -9 35 -21 7 -22 11 -12 32
14 32 28 32 20 1 -4 -18 -1 -25 16 -29 17 -4 20 -1 18 16 -2 18 2 22 25 22 15
-1 27 3 27 7 0 12 -44 27 -48 17 -6 -15 -22 -10 -22 6 0 8 5 15 11 15 6 0 8 9
4 21 -5 14 -3 20 5 17 6 -2 11 -7 10 -12 -2 -10 20 -26 34 -26 5 0 2 8 -7 18
-10 10 -17 27 -17 38 0 16 -2 17 -10 4 -8 -12 -10 -11 -10 8 0 38 44 29 69
-14z m-3984 -84 c4 0 2 7 -5 15 -33 40 38 -3 84 -51 12 -12 31 -24 43 -28 11
-4 24 -13 27 -21 3 -8 12 -15 21 -15 8 0 15 -4 15 -8 0 -5 10 -19 22 -32 l23
-24 5 28 5 28 32 -31 c18 -17 30 -37 27 -44 -7 -19 13 -67 28 -67 16 -1 68
-45 68 -58 0 -6 7 -12 15 -16 8 -3 15 -12 15 -21 0 -8 6 -15 13 -15 8 0 22 -9
33 -21 16 -17 16 -22 4 -29 -8 -6 -19 -10 -23 -10 -12 0 -62 35 -117 82 -25
21 -53 45 -62 53 -10 8 -18 11 -18 6 0 -6 5 -13 10 -16 6 -3 10 -11 10 -17 0
-7 -14 1 -30 17 -18 17 -26 31 -20 33 7 3 -35 50 -92 106 -107 106 -198 203
-162 173 11 -9 24 -17 29 -17z m4691 -295 c-3 -10 1 -15 11 -15 14 0 14 -2 -1
-19 -17 -18 -16 -20 5 -26 16 -5 18 -9 9 -15 -8 -5 -15 -15 -16 -23 -1 -8 -5
-24 -9 -36 -7 -22 10 -30 18 -8 3 6 6 -1 6 -17 1 -23 4 -27 13 -18 17 17 28
15 28 -4 0 -9 9 -18 20 -21 24 -6 27 -23 4 -23 -8 0 -12 -5 -9 -10 4 -6 16 -8
27 -4 17 5 18 3 9 -15 -10 -19 -9 -20 26 -17 21 2 47 7 57 11 15 7 18 5 13 -7
-4 -12 -1 -14 13 -11 10 3 30 -3 44 -12 14 -10 26 -14 26 -10 0 4 6 2 13 -4 8
-6 17 -8 20 -4 4 3 18 -6 33 -20 26 -27 24 -53 -3 -42 -13 4 -14 3 -4 -9 10
-11 8 -17 -6 -25 -10 -6 -12 -11 -5 -11 6 0 12 -5 12 -10 0 -6 -13 -8 -30 -5
-17 3 -30 1 -30 -5 0 -5 6 -9 13 -8 7 2 12 -7 12 -21 0 -22 -14 -30 -145 -82
-80 -32 -152 -58 -160 -58 -8 0 3 7 25 16 22 9 42 20 43 25 2 4 13 8 23 8 11
0 17 5 14 10 -4 6 -11 8 -16 4 -17 -10 -69 -13 -69 -4 0 6 -6 10 -13 10 -8 0
-28 7 -46 16 -18 9 -42 14 -53 11 -26 -7 -78 3 -78 15 0 5 9 12 21 16 20 8 20
9 -6 20 -18 8 -32 9 -45 2 -26 -14 -33 -13 -26 6 4 10 1 14 -6 12 -7 -3 -14
-13 -16 -24 -1 -11 -16 -28 -32 -39 -38 -25 -45 -54 -17 -64 12 -5 26 -6 31
-3 5 3 6 0 3 -5 -4 -6 3 -13 15 -16 12 -4 19 -9 16 -13 -6 -5 -115 46 -146 70
-11 7 -11 11 0 18 9 6 5 7 -10 3 -16 -5 -50 8 -120 45 -126 67 -128 69 -102
87 12 8 19 21 16 29 -3 7 -1 16 5 19 10 7 3 25 -11 25 -5 0 -15 -6 -22 -13
-26 -25 -68 -38 -88 -27 -24 13 -24 58 -1 80 23 22 71 26 71 6 0 -18 9 -20 30
-6 11 7 12 12 3 18 -6 4 -12 27 -11 50 0 31 3 40 12 33 18 -15 38 2 29 25 -6
16 -5 17 9 6 13 -11 20 -11 37 -1 15 10 25 10 45 1 14 -7 37 -17 51 -24 14 -6
25 -15 25 -20 0 -5 -4 -7 -9 -4 -5 3 -11 -3 -14 -13 -3 -14 2 -18 24 -19 16 0
29 4 29 10 0 6 12 8 29 5 20 -4 31 -2 34 7 3 8 25 20 49 29 119 40 150 49 171
45 24 -5 30 13 13 40 -4 8 -1 12 9 12 15 0 15 1 0 17 -16 16 -16 17 4 25 11 4
21 12 21 18 0 6 4 9 9 5 5 -3 12 -1 16 5 10 15 18 12 11 -5z m11119 -604 c3
-6 -2 -14 -11 -19 -16 -9 -15 -10 4 -16 11 -4 39 -8 61 -9 22 0 37 -5 34 -10
-3 -5 3 -4 13 1 37 20 145 55 151 49 3 -4 0 -13 -6 -21 -8 -9 -10 -28 -6 -49
6 -30 4 -35 -16 -40 -24 -7 -43 3 -21 10 17 6 15 23 -3 23 -8 0 -15 4 -15 9 0
5 6 8 13 7 6 0 13 4 15 9 4 15 -36 14 -49 -1 -6 -8 -18 -14 -25 -14 -8 0 -14
-4 -14 -10 0 -5 7 -10 15 -10 8 0 15 -4 15 -9 0 -6 -16 -3 -36 5 -40 17 -59 9
-75 -34 -8 -21 -14 -23 -40 -18 -18 3 -42 6 -55 6 -17 0 -24 6 -24 20 0 17 7
20 51 20 31 0 48 4 44 10 -3 6 -24 10 -46 10 -29 0 -39 4 -39 16 0 8 -5 12
-11 8 -6 -3 -15 0 -20 7 -14 22 -11 29 11 29 11 0 20 -4 20 -10 0 -20 21 -9
30 15 10 26 24 32 35 16z m-4467 -293 c23 -16 42 -34 42 -39 0 -6 5 -7 10 -4
6 3 10 17 10 31 0 27 2 28 28 15 9 -5 30 -15 46 -22 27 -13 28 -14 8 -17 -28
-4 -18 -22 12 -22 12 0 31 -6 42 -14 11 -9 30 -12 46 -9 15 3 35 2 45 -2 16
-7 15 -9 -7 -15 -28 -8 -32 -6 80 -40 41 -12 85 -28 98 -36 12 -8 27 -12 32
-9 11 7 90 -17 90 -28 0 -4 -19 -28 -42 -53 -44 -48 -71 -52 -105 -19 -8 8
-21 16 -29 16 -8 1 -20 2 -26 3 -7 0 -14 18 -16 38 -3 30 0 37 11 32 8 -3 18
-1 22 5 3 6 -2 11 -13 11 -32 0 -392 121 -392 132 0 5 -8 7 -19 3 -20 -6 -71
13 -71 26 0 5 -15 15 -34 23 -63 26 -55 39 20 31 52 -6 80 -15 112 -37z m3149
-509 c13 -5 25 -4 28 1 9 14 54 12 69 -2 27 -28 44 -75 33 -94 -9 -16 -8 -17
5 -6 8 7 22 10 30 7 18 -7 33 10 42 48 5 23 12 27 39 27 27 -1 30 -3 17 -13
-8 -7 -16 -19 -18 -27 -2 -8 -11 -22 -21 -30 -10 -8 -21 -23 -25 -34 -4 -12
-12 -16 -22 -12 -9 4 -28 -1 -41 -10 -23 -14 -26 -14 -39 3 -7 10 -14 34 -14
54 0 28 -5 38 -25 47 -14 7 -37 12 -50 12 -13 0 -26 4 -30 9 -3 5 -30 15 -60
21 -30 6 -55 14 -55 16 0 7 110 -7 137 -17z m-630 -205 c-3 -4 -2 -15 4 -26 7
-14 18 -19 34 -16 22 5 24 1 27 -49 3 -45 0 -53 -15 -53 -10 0 -20 -8 -23 -17
-14 -47 -39 -61 -73 -43 -9 5 -37 15 -63 24 -45 14 -49 14 -80 -8 -60 -40 -61
-40 -46 -17 7 12 17 21 21 21 5 0 7 6 4 14 -3 8 -1 16 5 18 13 5 132 -9 159
-17 11 -4 19 -2 19 4 0 6 -5 11 -12 11 -20 0 -108 43 -108 53 0 5 15 6 35 3
33 -6 35 -5 35 19 0 27 18 33 39 13 12 -11 13 -10 7 6 -5 14 -3 17 10 12 14
-5 16 -1 11 24 -4 19 -2 30 5 30 6 0 8 -3 5 -6z m821 -210 c34 -9 27 -27 -8
-19 -31 7 -36 0 -31 -49 2 -25 -37 -66 -55 -59 -25 9 -15 -14 17 -41 20 -17
25 -26 15 -26 -9 0 -28 14 -43 31 -16 17 -51 55 -78 84 -48 50 -49 54 -31 65
13 9 21 9 24 2 1 -5 14 -23 27 -38 19 -23 27 -26 37 -16 6 6 9 12 5 12 -4 0
-3 9 3 20 13 24 35 27 26 4 -4 -12 0 -15 17 -12 12 2 22 10 23 18 2 33 7 36
52 24z m-1220 -37 c12 1 22 -3 22 -8 0 -5 9 -9 19 -9 25 0 77 -44 84 -71 4
-16 -2 -29 -24 -48 -16 -14 -29 -33 -29 -43 0 -11 -5 -15 -15 -12 -8 4 -15 12
-15 19 0 8 -11 27 -25 43 -14 17 -25 40 -25 52 0 33 -17 57 -45 64 -14 4 -25
11 -25 17 0 7 10 8 28 3 15 -4 37 -7 50 -7z m352 -23 c0 -8 7 -17 15 -20 20
-8 9 -24 -17 -24 -16 0 -18 -3 -9 -14 6 -7 9 -24 7 -37 -3 -13 -5 -27 -5 -31
-2 -15 -30 -8 -58 16 -15 13 -44 28 -64 35 -32 10 -35 14 -31 41 4 26 9 30 34
30 16 0 27 4 24 8 -2 4 5 8 17 9 12 0 16 -1 10 -4 -18 -7 -16 -20 2 -20 8 0
15 7 15 16 0 14 2 14 10 1 9 -13 12 -13 21 3 11 19 29 14 29 -9z m-12317 -643
c20 -8 20 -8 1 -27 -11 -11 -18 -26 -16 -32 2 -7 0 -12 -5 -12 -4 0 -21 -11
-36 -25 -15 -14 -27 -23 -27 -20 0 3 -5 3 -11 -1 -7 -4 -7 -9 -1 -13 5 -3 6
-15 1 -26 -4 -11 -8 -14 -8 -6 -1 10 -4 11 -14 2 -11 -8 -21 -4 -45 18 -18 15
-32 34 -32 42 0 8 9 2 21 -13 29 -39 37 -35 32 16 -3 25 -2 61 1 81 l7 37 56
-7 c31 -4 65 -10 76 -14z"/>
<path d="M6538 7351 c-14 -14 -40 -37 -58 -50 -22 -17 -28 -27 -21 -34 6 -6
11 -18 11 -27 0 -9 8 -25 17 -36 15 -20 18 -20 55 -6 21 8 40 13 42 11 2 -2 1
-22 -2 -44 -4 -32 -6 -36 -12 -20 -7 19 -8 18 -18 -6 -6 -15 -18 -29 -26 -32
-9 -4 -16 -11 -16 -17 0 -6 20 1 45 16 46 26 56 27 31 1 -13 -13 -13 -17 -1
-33 13 -18 14 -18 9 3 -4 14 1 28 15 42 25 25 29 56 5 47 -9 -3 -12 -2 -9 5 4
5 0 20 -8 33 -15 22 -14 23 10 18 24 -5 25 -4 8 16 -17 19 -45 20 -45 1 0 -5
-4 -9 -10 -9 -5 0 -10 7 -10 15 0 8 -7 15 -15 15 -8 0 -15 5 -15 11 0 7 10 9
28 5 17 -4 22 -3 13 2 -10 8 -11 11 -1 17 8 5 19 1 28 -11 14 -18 14 -18 9 4
-3 12 -2 22 3 22 17 0 4 47 -16 57 -16 7 -25 4 -46 -16z"/>
</g>
</svg>
